<mxfile host="app.diagrams.net" agent="Mozilla/5.0 (Macintosh; Intel Mac OS X 10_15_7) AppleWebKit/537.36 (KHTML, like Gecko) Chrome/128.0.0.0 Safari/537.36" version="24.7.8">
  <diagram name="ページ1" id="pPS3xoXnqM6sQ-M2EUR3">
    <mxGraphModel dx="4276" dy="1513" grid="1" gridSize="10" guides="1" tooltips="1" connect="1" arrows="1" fold="1" page="1" pageScale="1" pageWidth="827" pageHeight="1169" math="0" shadow="0">
      <root>
        <mxCell id="0" />
        <mxCell id="1" parent="0" />
        <mxCell id="TBqUn7i90Os5dq9h37R5-55" value="192.168.0.0/24" style="swimlane;startSize=20;horizontal=1;containerType=tree;newEdgeStyle={&quot;edgeStyle&quot;:&quot;elbowEdgeStyle&quot;,&quot;startArrow&quot;:&quot;none&quot;,&quot;endArrow&quot;:&quot;none&quot;};fillStyle=auto;movable=1;resizable=1;rotatable=1;deletable=1;editable=1;locked=0;connectable=1;labelBackgroundColor=none;labelBorderColor=none;rounded=1;fillColor=#B1DDF0;strokeColor=#BAC8D3;fontColor=#182E3E;container=0;" parent="1" vertex="1">
          <mxGeometry x="-576" y="799" width="440" height="220" as="geometry">
            <mxRectangle x="30" y="520" width="120" height="30" as="alternateBounds" />
          </mxGeometry>
        </mxCell>
        <mxCell id="b4izhYdNKLjriugIE88t-89" value="WAN" style="edgeLabel;html=1;align=center;verticalAlign=middle;resizable=0;points=[];fontFamily=Helvetica;fontSize=12;labelBackgroundColor=none;labelBorderColor=none;rounded=1;fontColor=#182E3E;" vertex="1" connectable="0" parent="TBqUn7i90Os5dq9h37R5-55">
          <mxGeometry x="368" y="103.54999999999995" as="geometry">
            <mxPoint x="-9" y="-13" as="offset" />
          </mxGeometry>
        </mxCell>
        <mxCell id="TBqUn7i90Os5dq9h37R5-158" value="" style="endArrow=classic;html=1;rounded=1;endFill=1;startArrow=classic;startFill=1;movable=1;resizable=1;rotatable=1;deletable=1;editable=1;locked=0;connectable=1;entryX=0.25;entryY=1;entryDx=0;entryDy=0;exitX=0.25;exitY=0;exitDx=0;exitDy=0;dashed=1;labelBackgroundColor=none;fontColor=default;labelBorderColor=none;strokeColor=#60E696;" parent="1" source="TBqUn7i90Os5dq9h37R5-56" target="TBqUn7i90Os5dq9h37R5-46" edge="1">
          <mxGeometry relative="1" as="geometry">
            <mxPoint x="-186" y="697" as="sourcePoint" />
            <mxPoint x="-186" y="546.4296319018404" as="targetPoint" />
          </mxGeometry>
        </mxCell>
        <mxCell id="TBqUn7i90Os5dq9h37R5-169" value="&lt;font color=&quot;#000000&quot; style=&quot;font-size: 12px;&quot;&gt;tailnet&lt;/font&gt;" style="edgeLabel;html=1;align=center;verticalAlign=middle;resizable=0;points=[];labelBackgroundColor=default;labelBorderColor=none;rounded=1;fontColor=#182E3E;fontSize=12;" parent="TBqUn7i90Os5dq9h37R5-158" vertex="1" connectable="0">
          <mxGeometry x="0.6171" y="1" relative="1" as="geometry">
            <mxPoint y="-9" as="offset" />
          </mxGeometry>
        </mxCell>
        <mxCell id="TBqUn7i90Os5dq9h37R5-170" value="&lt;font color=&quot;#000000&quot; style=&quot;font-size: 12px;&quot;&gt;tailnet&lt;/font&gt;" style="edgeLabel;html=1;align=center;verticalAlign=middle;resizable=0;points=[];labelBackgroundColor=default;labelBorderColor=none;rounded=1;fontColor=#182E3E;fontSize=12;" parent="TBqUn7i90Os5dq9h37R5-158" vertex="1" connectable="0">
          <mxGeometry x="-0.7224" y="-1" relative="1" as="geometry">
            <mxPoint x="-1" y="7" as="offset" />
          </mxGeometry>
        </mxCell>
        <mxCell id="TBqUn7i90Os5dq9h37R5-1" value="192.168.1.0/24" style="swimlane;startSize=20;horizontal=1;containerType=tree;newEdgeStyle={&quot;edgeStyle&quot;:&quot;elbowEdgeStyle&quot;,&quot;startArrow&quot;:&quot;none&quot;,&quot;endArrow&quot;:&quot;none&quot;};fillStyle=auto;movable=1;resizable=1;rotatable=1;deletable=1;editable=1;locked=0;connectable=1;labelBackgroundColor=none;container=0;labelBorderColor=none;rounded=1;fillColor=#B1DDF0;strokeColor=#BAC8D3;fontColor=#182E3E;" parent="1" vertex="1">
          <mxGeometry x="-806" y="409" width="670" height="250" as="geometry">
            <mxRectangle x="30" y="520" width="120" height="30" as="alternateBounds" />
          </mxGeometry>
        </mxCell>
        <mxCell id="TBqUn7i90Os5dq9h37R5-57" value="" style="endArrow=classic;html=1;rounded=1;entryX=0;entryY=0.25;entryDx=0;entryDy=0;exitX=1;exitY=0.25;exitDx=0;exitDy=0;endFill=1;startArrow=classic;startFill=1;movable=1;resizable=1;rotatable=1;deletable=1;editable=1;locked=0;connectable=1;labelBackgroundColor=none;fontColor=default;labelBorderColor=none;strokeColor=#60E696;" parent="1" source="TBqUn7i90Os5dq9h37R5-153" target="TBqUn7i90Os5dq9h37R5-46" edge="1">
          <mxGeometry relative="1" as="geometry">
            <mxPoint x="-426" y="691" as="sourcePoint" />
            <mxPoint x="-326" y="691" as="targetPoint" />
          </mxGeometry>
        </mxCell>
        <mxCell id="TBqUn7i90Os5dq9h37R5-58" value="&amp;nbsp;LAN&amp;nbsp;" style="edgeLabel;resizable=1;html=1;;align=center;verticalAlign=middle;movable=1;rotatable=1;deletable=1;editable=1;locked=0;connectable=1;labelBackgroundColor=default;labelBorderColor=none;rounded=1;fontColor=#182E3E;" parent="TBqUn7i90Os5dq9h37R5-57" connectable="0" vertex="1">
          <mxGeometry relative="1" as="geometry" />
        </mxCell>
        <mxCell id="TBqUn7i90Os5dq9h37R5-78" value="" style="endArrow=classic;html=1;rounded=1;entryX=0;entryY=0.75;entryDx=0;entryDy=0;exitX=1;exitY=0.75;exitDx=0;exitDy=0;endFill=1;startArrow=classic;startFill=1;movable=1;resizable=1;rotatable=1;deletable=1;editable=1;locked=0;connectable=1;dashed=1;labelBackgroundColor=none;fontColor=default;labelBorderColor=none;strokeColor=#60E696;" parent="1" source="TBqUn7i90Os5dq9h37R5-153" target="TBqUn7i90Os5dq9h37R5-46" edge="1">
          <mxGeometry relative="1" as="geometry">
            <mxPoint x="-501" y="521" as="sourcePoint" />
            <mxPoint x="-276" y="521" as="targetPoint" />
          </mxGeometry>
        </mxCell>
        <mxCell id="TBqUn7i90Os5dq9h37R5-79" value="&lt;span style=&quot;color: rgb(51, 51, 51); text-align: left; text-wrap: wrap; font-size: 12px;&quot;&gt;&amp;nbsp;&lt;/span&gt;&lt;span style=&quot;color: rgb(51, 51, 51); text-align: left; text-wrap: wrap; font-size: 12px;&quot;&gt;tailnet&amp;nbsp;&lt;/span&gt;" style="edgeLabel;resizable=1;html=1;;align=center;verticalAlign=middle;movable=1;rotatable=1;deletable=1;editable=1;locked=0;connectable=1;fontSize=12;labelBackgroundColor=default;labelBorderColor=none;rounded=1;fontColor=#182E3E;" parent="TBqUn7i90Os5dq9h37R5-78" connectable="0" vertex="1">
          <mxGeometry relative="1" as="geometry">
            <mxPoint y="-1" as="offset" />
          </mxGeometry>
        </mxCell>
        <mxCell id="TBqUn7i90Os5dq9h37R5-135" value="tailscale0" style="edgeLabel;html=1;align=center;verticalAlign=middle;resizable=0;points=[];fontFamily=Helvetica;fontSize=12;labelBackgroundColor=none;labelBorderColor=none;rounded=1;fontColor=#182E3E;" parent="1" vertex="1" connectable="0">
          <mxGeometry x="-460" y="553" as="geometry">
            <mxPoint x="-9" y="-13" as="offset" />
          </mxGeometry>
        </mxCell>
        <mxCell id="TBqUn7i90Os5dq9h37R5-131" value="" style="edgeStyle=elbowEdgeStyle;elbow=vertical;sourcePerimeterSpacing=0;targetPerimeterSpacing=0;startArrow=classic;endArrow=classic;rounded=1;curved=0;movable=1;resizable=1;rotatable=1;deletable=1;editable=1;locked=0;connectable=1;entryX=0.5;entryY=0;entryDx=0;entryDy=0;startFill=1;endFill=1;dashed=1;exitX=0;exitY=0.5;exitDx=0;exitDy=0;labelBackgroundColor=none;fontColor=default;labelBorderColor=none;strokeColor=#60E696;" parent="1" source="TBqUn7i90Os5dq9h37R5-153" target="TBqUn7i90Os5dq9h37R5-130" edge="1">
          <mxGeometry relative="1" as="geometry">
            <mxPoint x="-556" y="539" as="sourcePoint" />
            <mxPoint x="-741" y="562.1014110429446" as="targetPoint" />
            <Array as="points">
              <mxPoint x="-676" y="515" />
            </Array>
          </mxGeometry>
        </mxCell>
        <mxCell id="TBqUn7i90Os5dq9h37R5-163" value="&lt;span style=&quot;text-wrap: wrap; text-align: left;&quot;&gt;&amp;nbsp;&lt;/span&gt;&lt;span style=&quot;text-wrap: wrap; text-align: left;&quot;&gt;tailnet&amp;nbsp;&lt;/span&gt;" style="edgeLabel;html=1;align=center;verticalAlign=middle;resizable=0;points=[];fontFamily=Helvetica;fontSize=12;labelBackgroundColor=default;labelBorderColor=none;rounded=1;fontColor=#182E3E;" parent="TBqUn7i90Os5dq9h37R5-131" vertex="1" connectable="0">
          <mxGeometry x="-0.2704" relative="1" as="geometry">
            <mxPoint x="11" y="-2" as="offset" />
          </mxGeometry>
        </mxCell>
        <mxCell id="TBqUn7i90Os5dq9h37R5-149" value="&lt;font style=&quot;font-size: 15px;&quot;&gt;Internet&lt;/font&gt;" style="ellipse;shape=cloud;whiteSpace=wrap;html=1;align=center;verticalAlign=middle;fontFamily=Helvetica;fontSize=12;labelBackgroundColor=none;labelBorderColor=none;rounded=1;fillColor=#B1DDF0;fontColor=#182E3E;strokeColor=#BAC8D3;" parent="1" vertex="1">
          <mxGeometry x="-306" y="678" width="180.5" height="100" as="geometry" />
        </mxCell>
        <mxCell id="l9loDWFrXM23vujXXHem-27" value="192.168.8.0/24" style="swimlane;startSize=20;horizontal=1;containerType=tree;newEdgeStyle={&quot;edgeStyle&quot;:&quot;elbowEdgeStyle&quot;,&quot;startArrow&quot;:&quot;none&quot;,&quot;endArrow&quot;:&quot;none&quot;};fillStyle=auto;movable=1;resizable=1;rotatable=1;deletable=1;editable=1;locked=0;connectable=1;container=0;labelBackgroundColor=none;labelBorderColor=none;rounded=1;fillColor=#B1DDF0;strokeColor=#BAC8D3;fontColor=#182E3E;" parent="1" vertex="1">
          <mxGeometry x="-786" y="449" width="450" height="190" as="geometry">
            <mxRectangle x="30" y="520" width="120" height="30" as="alternateBounds" />
          </mxGeometry>
        </mxCell>
        <mxCell id="TBqUn7i90Os5dq9h37R5-134" value="eth0/rax0" style="edgeLabel;html=1;align=center;verticalAlign=middle;resizable=0;points=[];fontFamily=Helvetica;fontSize=12;labelBackgroundColor=none;labelBorderColor=none;rounded=1;fontColor=#182E3E;" parent="l9loDWFrXM23vujXXHem-27" vertex="1" connectable="0">
          <mxGeometry x="326" y="55" as="geometry">
            <mxPoint x="-9" y="-13" as="offset" />
          </mxGeometry>
        </mxCell>
        <mxCell id="TBqUn7i90Os5dq9h37R5-161" value="LAN1" style="edgeLabel;html=1;align=center;verticalAlign=middle;resizable=0;points=[];fontFamily=Helvetica;fontSize=12;labelBackgroundColor=none;labelBorderColor=none;rounded=1;fontColor=#182E3E;" parent="1" vertex="1" connectable="0">
          <mxGeometry x="-288" y="528" as="geometry">
            <mxPoint x="-9" y="-13" as="offset" />
          </mxGeometry>
        </mxCell>
        <mxCell id="TBqUn7i90Os5dq9h37R5-162" value="WAN" style="edgeLabel;html=1;align=center;verticalAlign=middle;resizable=0;points=[];fontFamily=Helvetica;fontSize=12;labelBackgroundColor=none;labelBorderColor=none;rounded=1;fontColor=#182E3E;" parent="1" vertex="1" connectable="0">
          <mxGeometry x="-208" y="562" as="geometry">
            <mxPoint x="-9" y="-13" as="offset" />
          </mxGeometry>
        </mxCell>
        <mxCell id="TBqUn7i90Os5dq9h37R5-167" value="" style="edgeStyle=elbowEdgeStyle;elbow=vertical;sourcePerimeterSpacing=0;targetPerimeterSpacing=0;startArrow=none;endArrow=none;rounded=1;curved=0;movable=1;resizable=1;rotatable=1;deletable=1;editable=1;locked=0;connectable=1;exitX=0.5;exitY=1;exitDx=0;exitDy=0;entryX=0.5;entryY=0;entryDx=0;entryDy=0;labelBackgroundColor=none;fontColor=default;labelBorderColor=none;strokeColor=#60E696;" parent="1" source="TBqUn7i90Os5dq9h37R5-153" target="TBqUn7i90Os5dq9h37R5-130" edge="1">
          <mxGeometry relative="1" as="geometry">
            <mxPoint x="-551" y="548" as="sourcePoint" />
            <mxPoint x="-671" y="590.6014110429446" as="targetPoint" />
            <Array as="points" />
          </mxGeometry>
        </mxCell>
        <mxCell id="l9loDWFrXM23vujXXHem-36" value="" style="edgeStyle=elbowEdgeStyle;elbow=vertical;sourcePerimeterSpacing=0;targetPerimeterSpacing=0;startArrow=none;endArrow=none;rounded=1;curved=0;movable=1;resizable=1;rotatable=1;deletable=1;editable=1;locked=0;connectable=1;exitX=0.5;exitY=1;exitDx=0;exitDy=0;labelBackgroundColor=none;fontColor=default;labelBorderColor=none;strokeColor=#60E696;" parent="1" source="TBqUn7i90Os5dq9h37R5-153" target="l9loDWFrXM23vujXXHem-132" edge="1">
          <mxGeometry relative="1" as="geometry">
            <mxPoint x="-566" y="539" as="sourcePoint" />
            <Array as="points">
              <mxPoint x="-586" y="569" />
            </Array>
          </mxGeometry>
        </mxCell>
        <mxCell id="l9loDWFrXM23vujXXHem-129" value="" style="edgeStyle=elbowEdgeStyle;elbow=vertical;sourcePerimeterSpacing=0;targetPerimeterSpacing=0;startArrow=none;endArrow=none;rounded=1;curved=0;movable=1;resizable=1;rotatable=1;deletable=1;editable=1;locked=0;connectable=1;labelBackgroundColor=none;fontColor=default;labelBorderColor=none;strokeColor=#60E696;" parent="1" edge="1">
          <mxGeometry relative="1" as="geometry">
            <mxPoint x="-561" y="539" as="sourcePoint" />
            <mxPoint x="-441" y="599" as="targetPoint" />
            <Array as="points">
              <mxPoint x="-496" y="569" />
            </Array>
          </mxGeometry>
        </mxCell>
        <mxCell id="l9loDWFrXM23vujXXHem-136" value="" style="edgeStyle=elbowEdgeStyle;elbow=vertical;sourcePerimeterSpacing=0;targetPerimeterSpacing=0;startArrow=none;endArrow=none;rounded=1;curved=0;exitX=0.5;exitY=1;exitDx=0;exitDy=0;movable=1;resizable=1;rotatable=1;deletable=1;editable=1;locked=0;connectable=1;labelBackgroundColor=none;fontColor=default;labelBorderColor=none;strokeColor=#60E696;" parent="1" source="TBqUn7i90Os5dq9h37R5-153" target="l9loDWFrXM23vujXXHem-31" edge="1">
          <mxGeometry relative="1" as="geometry">
            <mxPoint x="-566" y="547.4725766871165" as="sourcePoint" />
          </mxGeometry>
        </mxCell>
        <mxCell id="l9loDWFrXM23vujXXHem-131" value="" style="edgeStyle=elbowEdgeStyle;elbow=vertical;sourcePerimeterSpacing=0;targetPerimeterSpacing=0;startArrow=none;endArrow=none;rounded=1;curved=0;movable=1;resizable=1;rotatable=1;deletable=1;editable=1;locked=0;connectable=1;labelBackgroundColor=none;fontColor=default;labelBorderColor=none;strokeColor=#60E696;" parent="1" target="l9loDWFrXM23vujXXHem-130" edge="1">
          <mxGeometry relative="1" as="geometry">
            <mxPoint x="-561" y="529" as="sourcePoint" />
            <Array as="points">
              <mxPoint x="-536" y="569" />
            </Array>
          </mxGeometry>
        </mxCell>
        <mxCell id="TBqUn7i90Os5dq9h37R5-37" value="" style="edgeStyle=elbowEdgeStyle;elbow=vertical;sourcePerimeterSpacing=0;targetPerimeterSpacing=0;startArrow=none;endArrow=none;rounded=1;curved=0;movable=1;resizable=1;rotatable=1;deletable=1;editable=1;locked=0;connectable=1;exitX=0.5;exitY=1;exitDx=0;exitDy=0;labelBackgroundColor=none;fontColor=default;labelBorderColor=none;strokeColor=#60E696;" parent="1" source="TBqUn7i90Os5dq9h37R5-153" target="TBqUn7i90Os5dq9h37R5-38" edge="1">
          <mxGeometry relative="1" as="geometry">
            <mxPoint x="-551" y="911.889754601227" as="sourcePoint" />
            <Array as="points">
              <mxPoint x="-476" y="569" />
            </Array>
          </mxGeometry>
        </mxCell>
        <mxCell id="TBqUn7i90Os5dq9h37R5-153" value="&lt;font style=&quot;vertical-align: inherit;&quot;&gt;GL-MT3000&lt;/font&gt;&lt;div&gt;&lt;font style=&quot;vertical-align: inherit;&quot;&gt;192.168.8.1&lt;/font&gt;&lt;/div&gt;" style="whiteSpace=wrap;html=1;align=center;verticalAlign=middle;fontFamily=Helvetica;fontSize=12;labelBackgroundColor=none;labelBorderColor=none;rounded=1;fillColor=#B1DDF0;strokeColor=#BAC8D3;fontColor=#182E3E;" parent="1" vertex="1">
          <mxGeometry x="-621.5" y="492.26" width="121" height="45.55" as="geometry" />
        </mxCell>
        <mxCell id="TBqUn7i90Os5dq9h37R5-41" value="" style="edgeStyle=elbowEdgeStyle;elbow=vertical;sourcePerimeterSpacing=0;targetPerimeterSpacing=0;startArrow=none;endArrow=none;rounded=1;curved=0;movable=1;resizable=1;rotatable=1;deletable=1;editable=1;locked=0;connectable=1;exitX=0.5;exitY=1;exitDx=0;exitDy=0;entryX=0.5;entryY=0;entryDx=0;entryDy=0;labelBackgroundColor=none;fontColor=default;labelBorderColor=none;strokeColor=#60E696;" parent="1" source="TBqUn7i90Os5dq9h37R5-153" target="TBqUn7i90Os5dq9h37R5-42" edge="1">
          <mxGeometry relative="1" as="geometry">
            <mxPoint x="-606" y="549" as="sourcePoint" />
            <mxPoint x="-681" y="580.6014110429446" as="targetPoint" />
            <Array as="points">
              <mxPoint x="-626" y="569" />
            </Array>
          </mxGeometry>
        </mxCell>
        <mxCell id="TBqUn7i90Os5dq9h37R5-168" value="&amp;nbsp;br-lan&amp;nbsp;" style="edgeLabel;html=1;align=center;verticalAlign=middle;resizable=0;points=[];fontFamily=Helvetica;fontSize=12;labelBackgroundColor=default;labelBorderColor=none;rounded=1;fontColor=#182E3E;" parent="TBqUn7i90Os5dq9h37R5-41" vertex="1" connectable="0">
          <mxGeometry x="-0.8442" y="-3" relative="1" as="geometry">
            <mxPoint x="3" as="offset" />
          </mxGeometry>
        </mxCell>
        <mxCell id="TBqUn7i90Os5dq9h37R5-130" value="Node 1" style="whiteSpace=wrap;html=1;align=center;verticalAlign=middle;treeFolding=1;treeMoving=1;newEdgeStyle={&quot;edgeStyle&quot;:&quot;elbowEdgeStyle&quot;,&quot;startArrow&quot;:&quot;none&quot;,&quot;endArrow&quot;:&quot;none&quot;};movable=1;resizable=1;rotatable=1;deletable=1;editable=1;locked=0;connectable=1;labelBackgroundColor=none;labelBorderColor=none;rounded=1;fillColor=#B1DDF0;strokeColor=#BAC8D3;fontColor=#182E3E;" parent="1" vertex="1">
          <mxGeometry x="-766" y="599.0014110429447" width="50" height="20" as="geometry" />
        </mxCell>
        <mxCell id="l9loDWFrXM23vujXXHem-31" value="Node 4" style="whiteSpace=wrap;html=1;align=center;verticalAlign=middle;treeFolding=1;treeMoving=1;newEdgeStyle={&quot;edgeStyle&quot;:&quot;elbowEdgeStyle&quot;,&quot;startArrow&quot;:&quot;none&quot;,&quot;endArrow&quot;:&quot;none&quot;};movable=1;resizable=1;rotatable=1;deletable=1;editable=1;locked=0;connectable=1;labelBackgroundColor=none;labelBorderColor=none;rounded=1;fillColor=#B1DDF0;strokeColor=#BAC8D3;fontColor=#182E3E;" parent="1" vertex="1" collapsed="1">
          <mxGeometry x="-586" y="599.0014110429447" width="50" height="20" as="geometry" />
        </mxCell>
        <mxCell id="l9loDWFrXM23vujXXHem-35" value="Node 6" style="whiteSpace=wrap;html=1;align=center;verticalAlign=middle;treeFolding=1;treeMoving=1;newEdgeStyle={&quot;edgeStyle&quot;:&quot;elbowEdgeStyle&quot;,&quot;startArrow&quot;:&quot;none&quot;,&quot;endArrow&quot;:&quot;none&quot;};movable=1;resizable=1;rotatable=1;deletable=1;editable=1;locked=0;connectable=1;labelBackgroundColor=none;labelBorderColor=none;rounded=1;fillColor=#B1DDF0;strokeColor=#BAC8D3;fontColor=#182E3E;" parent="1" vertex="1">
          <mxGeometry x="-466" y="599.0014110429447" width="50" height="20" as="geometry" />
        </mxCell>
        <mxCell id="l9loDWFrXM23vujXXHem-132" value="Node 3" style="whiteSpace=wrap;html=1;align=center;verticalAlign=middle;treeFolding=1;treeMoving=1;newEdgeStyle={&quot;edgeStyle&quot;:&quot;elbowEdgeStyle&quot;,&quot;startArrow&quot;:&quot;none&quot;,&quot;endArrow&quot;:&quot;none&quot;};movable=1;resizable=1;rotatable=1;deletable=1;editable=1;locked=0;connectable=1;labelBackgroundColor=none;labelBorderColor=none;rounded=1;fillColor=#B1DDF0;strokeColor=#BAC8D3;fontColor=#182E3E;" parent="1" vertex="1">
          <mxGeometry x="-646" y="599.0014110429447" width="50" height="20" as="geometry" />
        </mxCell>
        <mxCell id="l9loDWFrXM23vujXXHem-130" value="Node 5" style="whiteSpace=wrap;html=1;align=center;verticalAlign=middle;treeFolding=1;treeMoving=1;newEdgeStyle={&quot;edgeStyle&quot;:&quot;elbowEdgeStyle&quot;,&quot;startArrow&quot;:&quot;none&quot;,&quot;endArrow&quot;:&quot;none&quot;};movable=1;resizable=1;rotatable=1;deletable=1;editable=1;locked=0;connectable=1;labelBackgroundColor=none;labelBorderColor=none;rounded=1;fillColor=#B1DDF0;strokeColor=#BAC8D3;fontColor=#182E3E;" parent="1" vertex="1">
          <mxGeometry x="-526" y="599.0014110429447" width="50" height="20" as="geometry" />
        </mxCell>
        <mxCell id="TBqUn7i90Os5dq9h37R5-38" value="Node 7" style="whiteSpace=wrap;html=1;align=center;verticalAlign=middle;treeFolding=1;treeMoving=1;newEdgeStyle={&quot;edgeStyle&quot;:&quot;elbowEdgeStyle&quot;,&quot;startArrow&quot;:&quot;none&quot;,&quot;endArrow&quot;:&quot;none&quot;};movable=1;resizable=1;rotatable=1;deletable=1;editable=1;locked=0;connectable=1;labelBackgroundColor=none;labelBorderColor=none;rounded=1;fillColor=#B1DDF0;strokeColor=#BAC8D3;fontColor=#182E3E;" parent="1" vertex="1">
          <mxGeometry x="-406" y="599.0014110429447" width="50" height="20" as="geometry" />
        </mxCell>
        <mxCell id="TBqUn7i90Os5dq9h37R5-39" style="edgeStyle=elbowEdgeStyle;rounded=1;orthogonalLoop=1;jettySize=auto;html=1;startArrow=none;endArrow=none;exitX=0.5;exitY=0;exitDx=0;exitDy=0;movable=1;resizable=1;rotatable=1;deletable=1;editable=1;locked=0;connectable=1;labelBackgroundColor=none;fontColor=default;labelBorderColor=none;strokeColor=#EEEEEE;" parent="1" source="TBqUn7i90Os5dq9h37R5-38" target="TBqUn7i90Os5dq9h37R5-38" edge="1">
          <mxGeometry relative="1" as="geometry" />
        </mxCell>
        <mxCell id="TBqUn7i90Os5dq9h37R5-42" value="Node 2" style="whiteSpace=wrap;html=1;align=center;verticalAlign=middle;treeFolding=1;treeMoving=1;newEdgeStyle={&quot;edgeStyle&quot;:&quot;elbowEdgeStyle&quot;,&quot;startArrow&quot;:&quot;none&quot;,&quot;endArrow&quot;:&quot;none&quot;};movable=1;resizable=1;rotatable=1;deletable=1;editable=1;locked=0;connectable=1;labelBackgroundColor=none;labelBorderColor=none;rounded=1;fillColor=#B1DDF0;strokeColor=#BAC8D3;fontColor=#182E3E;" parent="1" vertex="1">
          <mxGeometry x="-706" y="599.0014110429447" width="50" height="20" as="geometry" />
        </mxCell>
        <UserObject label="&lt;font style=&quot;vertical-align: inherit;&quot;&gt;&lt;font style=&quot;vertical-align: inherit;&quot;&gt;PR-500KI&lt;/font&gt;&lt;/font&gt;&lt;div&gt;&lt;font style=&quot;vertical-align: inherit;&quot;&gt;&lt;font style=&quot;vertical-align: inherit;&quot;&gt;192.168.1.1&lt;/font&gt;&lt;/font&gt;&lt;/div&gt;" treeRoot="1" id="TBqUn7i90Os5dq9h37R5-46">
          <mxCell style="whiteSpace=wrap;html=1;align=center;treeFolding=1;treeMoving=1;newEdgeStyle={&quot;edgeStyle&quot;:&quot;elbowEdgeStyle&quot;,&quot;startArrow&quot;:&quot;none&quot;,&quot;endArrow&quot;:&quot;none&quot;};verticalAlign=middle;movable=1;resizable=1;rotatable=1;deletable=1;editable=1;locked=0;connectable=1;labelBackgroundColor=none;labelBorderColor=none;rounded=1;fillColor=#B1DDF0;strokeColor=#BAC8D3;fontColor=#182E3E;" parent="1" vertex="1">
            <mxGeometry x="-276.5" y="492.2578527607362" width="121" height="45.55" as="geometry" />
          </mxCell>
        </UserObject>
        <mxCell id="TBqUn7i90Os5dq9h37R5-86" value="" style="endArrow=classic;html=1;rounded=1;endFill=1;startArrow=classic;startFill=1;movable=1;resizable=1;rotatable=1;deletable=1;editable=1;locked=0;connectable=1;entryX=0.75;entryY=1;entryDx=0;entryDy=0;labelBackgroundColor=none;fontColor=default;labelBorderColor=none;strokeColor=#60E696;" parent="1" target="TBqUn7i90Os5dq9h37R5-46" edge="1">
          <mxGeometry relative="1" as="geometry">
            <mxPoint x="-186" y="696" as="sourcePoint" />
            <mxPoint x="-196" y="514.4296319018404" as="targetPoint" />
          </mxGeometry>
        </mxCell>
        <UserObject label="&lt;font style=&quot;vertical-align: inherit;&quot;&gt;&lt;font style=&quot;vertical-align: inherit;&quot;&gt;BL1500HM&lt;/font&gt;&lt;/font&gt;&lt;div&gt;&lt;font style=&quot;vertical-align: inherit;&quot;&gt;&lt;font style=&quot;vertical-align: inherit;&quot;&gt;192.168.0.1&lt;/font&gt;&lt;/font&gt;&lt;/div&gt;" treeRoot="1" id="TBqUn7i90Os5dq9h37R5-56">
          <mxCell style="whiteSpace=wrap;html=1;align=center;treeFolding=1;treeMoving=1;newEdgeStyle={&quot;edgeStyle&quot;:&quot;elbowEdgeStyle&quot;,&quot;startArrow&quot;:&quot;none&quot;,&quot;endArrow&quot;:&quot;none&quot;};verticalAlign=middle;movable=1;resizable=1;rotatable=1;deletable=1;editable=1;locked=0;connectable=1;labelBackgroundColor=none;labelBorderColor=none;rounded=1;fillColor=#B1DDF0;strokeColor=#BAC8D3;fontColor=#182E3E;" parent="1" vertex="1">
            <mxGeometry x="-276" y="902.5478527607362" width="120" height="44.17177914110429" as="geometry" />
          </mxCell>
        </UserObject>
        <mxCell id="TBqUn7i90Os5dq9h37R5-88" value="" style="endArrow=classic;html=1;rounded=1;endFill=1;startArrow=classic;startFill=1;movable=1;resizable=1;rotatable=1;deletable=1;editable=1;locked=0;connectable=1;exitX=0.75;exitY=0;exitDx=0;exitDy=0;labelBackgroundColor=none;fontColor=default;labelBorderColor=none;strokeColor=#60E696;" parent="1" source="TBqUn7i90Os5dq9h37R5-56" edge="1">
          <mxGeometry relative="1" as="geometry">
            <mxPoint x="-186" y="902.55" as="sourcePoint" />
            <mxPoint x="-186" y="770" as="targetPoint" />
          </mxGeometry>
        </mxCell>
        <mxCell id="TBqUn7i90Os5dq9h37R5-156" value="Node 3" style="whiteSpace=wrap;html=1;align=center;verticalAlign=middle;treeFolding=1;treeMoving=1;newEdgeStyle={&quot;edgeStyle&quot;:&quot;elbowEdgeStyle&quot;,&quot;startArrow&quot;:&quot;none&quot;,&quot;endArrow&quot;:&quot;none&quot;};fontFamily=Helvetica;fontSize=12;labelBackgroundColor=none;labelBorderColor=none;rounded=1;fillColor=#B1DDF0;strokeColor=#BAC8D3;fontColor=#182E3E;" parent="1" vertex="1">
          <mxGeometry x="-376" y="864" width="60" height="20" as="geometry" />
        </mxCell>
        <mxCell id="TBqUn7i90Os5dq9h37R5-157" value="" style="edgeStyle=elbowEdgeStyle;elbow=vertical;sourcePerimeterSpacing=0;targetPerimeterSpacing=0;startArrow=none;endArrow=none;rounded=1;curved=0;fontFamily=Helvetica;fontSize=12;fontColor=default;exitX=0;exitY=0.5;exitDx=0;exitDy=0;entryX=0.5;entryY=1;entryDx=0;entryDy=0;labelBackgroundColor=none;labelBorderColor=none;strokeColor=#60E696;" parent="1" source="TBqUn7i90Os5dq9h37R5-56" target="TBqUn7i90Os5dq9h37R5-156" edge="1">
          <mxGeometry relative="1" as="geometry">
            <mxPoint x="-476" y="870.26" as="sourcePoint" />
            <mxPoint x="-326" y="873" as="targetPoint" />
            <Array as="points">
              <mxPoint x="-326" y="925" />
            </Array>
          </mxGeometry>
        </mxCell>
        <mxCell id="TBqUn7i90Os5dq9h37R5-172" value="Node 2" style="whiteSpace=wrap;html=1;align=center;verticalAlign=middle;treeFolding=1;treeMoving=1;newEdgeStyle={&quot;edgeStyle&quot;:&quot;elbowEdgeStyle&quot;,&quot;startArrow&quot;:&quot;none&quot;,&quot;endArrow&quot;:&quot;none&quot;};fontFamily=Helvetica;fontSize=12;labelBackgroundColor=none;labelBorderColor=none;rounded=1;fillColor=#B1DDF0;strokeColor=#BAC8D3;fontColor=#182E3E;" parent="1" vertex="1">
          <mxGeometry x="-466" y="864" width="60" height="20" as="geometry" />
        </mxCell>
        <mxCell id="TBqUn7i90Os5dq9h37R5-173" value="" style="edgeStyle=elbowEdgeStyle;elbow=vertical;sourcePerimeterSpacing=0;targetPerimeterSpacing=0;startArrow=none;endArrow=none;rounded=1;curved=0;fontFamily=Helvetica;fontSize=12;fontColor=default;exitX=0;exitY=0.5;exitDx=0;exitDy=0;entryX=0.5;entryY=1;entryDx=0;entryDy=0;labelBackgroundColor=none;labelBorderColor=none;strokeColor=#60E696;" parent="1" source="TBqUn7i90Os5dq9h37R5-56" target="TBqUn7i90Os5dq9h37R5-172" edge="1">
          <mxGeometry relative="1" as="geometry">
            <mxPoint x="-390" y="925" as="sourcePoint" />
            <mxPoint x="-440" y="873" as="targetPoint" />
            <Array as="points">
              <mxPoint x="-440" y="925" />
            </Array>
          </mxGeometry>
        </mxCell>
        <mxCell id="TBqUn7i90Os5dq9h37R5-174" value="Node 1" style="whiteSpace=wrap;html=1;align=center;verticalAlign=middle;treeFolding=1;treeMoving=1;newEdgeStyle={&quot;edgeStyle&quot;:&quot;elbowEdgeStyle&quot;,&quot;startArrow&quot;:&quot;none&quot;,&quot;endArrow&quot;:&quot;none&quot;};fontFamily=Helvetica;fontSize=12;labelBackgroundColor=none;labelBorderColor=none;rounded=1;fillColor=#B1DDF0;strokeColor=#BAC8D3;fontColor=#182E3E;" parent="1" vertex="1">
          <mxGeometry x="-556" y="864" width="60" height="20" as="geometry" />
        </mxCell>
        <mxCell id="TBqUn7i90Os5dq9h37R5-175" value="" style="edgeStyle=elbowEdgeStyle;elbow=vertical;sourcePerimeterSpacing=0;targetPerimeterSpacing=0;startArrow=none;endArrow=none;rounded=1;curved=0;fontFamily=Helvetica;fontSize=12;fontColor=default;exitX=0;exitY=0.5;exitDx=0;exitDy=0;entryX=0.5;entryY=1;entryDx=0;entryDy=0;labelBackgroundColor=none;labelBorderColor=none;strokeColor=#60E696;" parent="1" source="TBqUn7i90Os5dq9h37R5-56" target="TBqUn7i90Os5dq9h37R5-174" edge="1">
          <mxGeometry relative="1" as="geometry">
            <mxPoint x="-366" y="925" as="sourcePoint" />
            <mxPoint x="-530" y="873" as="targetPoint" />
            <Array as="points">
              <mxPoint x="-530" y="925" />
            </Array>
          </mxGeometry>
        </mxCell>
        <mxCell id="TBqUn7i90Os5dq9h37R5-176" value="Node 4" style="whiteSpace=wrap;html=1;align=center;verticalAlign=middle;treeFolding=1;treeMoving=1;newEdgeStyle={&quot;edgeStyle&quot;:&quot;elbowEdgeStyle&quot;,&quot;startArrow&quot;:&quot;none&quot;,&quot;endArrow&quot;:&quot;none&quot;};fontFamily=Helvetica;fontSize=12;labelBackgroundColor=none;labelBorderColor=none;rounded=1;fillColor=#B1DDF0;strokeColor=#BAC8D3;fontColor=#182E3E;" parent="1" vertex="1">
          <mxGeometry x="-516" y="969" width="60" height="20" as="geometry" />
        </mxCell>
        <mxCell id="TBqUn7i90Os5dq9h37R5-177" value="" style="edgeStyle=elbowEdgeStyle;elbow=vertical;sourcePerimeterSpacing=0;targetPerimeterSpacing=0;startArrow=none;endArrow=none;rounded=1;curved=0;fontFamily=Helvetica;fontSize=12;fontColor=default;exitX=0;exitY=0.5;exitDx=0;exitDy=0;labelBackgroundColor=none;labelBorderColor=none;strokeColor=#60E696;entryX=0.5;entryY=0;entryDx=0;entryDy=0;" parent="1" source="TBqUn7i90Os5dq9h37R5-56" target="TBqUn7i90Os5dq9h37R5-176" edge="1">
          <mxGeometry relative="1" as="geometry">
            <mxPoint x="-276" y="1019" as="sourcePoint" />
            <mxPoint x="-526" y="949" as="targetPoint" />
            <Array as="points">
              <mxPoint x="-406" y="925" />
            </Array>
          </mxGeometry>
        </mxCell>
        <mxCell id="TBqUn7i90Os5dq9h37R5-178" style="edgeStyle=elbowEdgeStyle;rounded=0;orthogonalLoop=1;jettySize=auto;html=1;startArrow=none;endArrow=none;entryX=0.5;entryY=0;entryDx=0;entryDy=0;" parent="1" source="TBqUn7i90Os5dq9h37R5-176" target="TBqUn7i90Os5dq9h37R5-176" edge="1">
          <mxGeometry relative="1" as="geometry" />
        </mxCell>
        <mxCell id="TBqUn7i90Os5dq9h37R5-180" value="Node 5" style="whiteSpace=wrap;html=1;align=center;verticalAlign=middle;treeFolding=1;treeMoving=1;newEdgeStyle={&quot;edgeStyle&quot;:&quot;elbowEdgeStyle&quot;,&quot;startArrow&quot;:&quot;none&quot;,&quot;endArrow&quot;:&quot;none&quot;};fontFamily=Helvetica;fontSize=12;labelBackgroundColor=none;labelBorderColor=none;rounded=1;fillColor=#B1DDF0;strokeColor=#BAC8D3;fontColor=#182E3E;" parent="1" vertex="1">
          <mxGeometry x="-416" y="969" width="60" height="20" as="geometry" />
        </mxCell>
        <mxCell id="TBqUn7i90Os5dq9h37R5-181" value="" style="edgeStyle=elbowEdgeStyle;elbow=vertical;sourcePerimeterSpacing=0;targetPerimeterSpacing=0;startArrow=none;endArrow=none;rounded=1;curved=0;fontFamily=Helvetica;fontSize=12;fontColor=default;labelBackgroundColor=none;labelBorderColor=none;strokeColor=#60E696;entryX=0.5;entryY=0;entryDx=0;entryDy=0;exitX=0;exitY=0.5;exitDx=0;exitDy=0;" parent="1" source="TBqUn7i90Os5dq9h37R5-56" target="TBqUn7i90Os5dq9h37R5-180" edge="1">
          <mxGeometry relative="1" as="geometry">
            <mxPoint x="-286" y="925" as="sourcePoint" />
            <mxPoint x="-436" y="949" as="targetPoint" />
            <Array as="points">
              <mxPoint x="-316" y="925" />
            </Array>
          </mxGeometry>
        </mxCell>
        <mxCell id="rb5gNborLMvIFsraGB_6-1" value="" style="edgeStyle=elbowEdgeStyle;elbow=vertical;sourcePerimeterSpacing=0;targetPerimeterSpacing=0;startArrow=classic;endArrow=classic;rounded=1;curved=0;fontFamily=Helvetica;fontSize=12;fontColor=default;labelBackgroundColor=none;labelBorderColor=none;strokeColor=#60E696;exitX=0.25;exitY=1;exitDx=0;exitDy=0;entryX=1;entryY=0.5;entryDx=0;entryDy=0;dashed=1;startFill=1;endFill=1;" parent="1" edge="1">
          <mxGeometry relative="1" as="geometry">
            <mxPoint x="-246" y="946.7196319018406" as="sourcePoint" />
            <mxPoint x="-356" y="979" as="targetPoint" />
            <Array as="points">
              <mxPoint x="-236" y="979" />
            </Array>
          </mxGeometry>
        </mxCell>
        <mxCell id="rb5gNborLMvIFsraGB_6-2" value="&lt;span style=&quot;font-size: 12px;&quot;&gt;&amp;nbsp;tailnet&amp;nbsp;&lt;/span&gt;" style="edgeLabel;html=1;align=center;verticalAlign=middle;resizable=0;points=[];" parent="rb5gNborLMvIFsraGB_6-1" vertex="1" connectable="0">
          <mxGeometry x="0.0807" y="-1" relative="1" as="geometry">
            <mxPoint x="1" as="offset" />
          </mxGeometry>
        </mxCell>
        <mxCell id="b4izhYdNKLjriugIE88t-4" value="" style="group;labelBackgroundColor=none;fontColor=#182E3E;" vertex="1" connectable="0" parent="1">
          <mxGeometry x="-806" y="79" width="340" height="290" as="geometry" />
        </mxCell>
        <mxCell id="b4izhYdNKLjriugIE88t-5" value="Applications" style="shape=table;startSize=20;container=1;collapsible=1;childLayout=tableLayout;fixedRows=1;rowLines=0;fontStyle=1;align=center;resizeLast=1;html=1;labelBackgroundColor=none;fillColor=#B1DDF0;strokeColor=#BAC8D3;fontColor=#182E3E;" vertex="1" parent="b4izhYdNKLjriugIE88t-4">
          <mxGeometry x="10" y="34.35" width="140" height="100" as="geometry" />
        </mxCell>
        <mxCell id="b4izhYdNKLjriugIE88t-6" value="" style="shape=tableRow;horizontal=0;startSize=0;swimlaneHead=0;swimlaneBody=0;fillColor=none;collapsible=0;dropTarget=0;points=[[0,0.5],[1,0.5]];portConstraint=eastwest;top=0;left=0;right=0;bottom=1;labelBackgroundColor=none;strokeColor=#BAC8D3;fontColor=#182E3E;" vertex="1" parent="b4izhYdNKLjriugIE88t-5">
          <mxGeometry y="20" width="140" height="20" as="geometry" />
        </mxCell>
        <mxCell id="b4izhYdNKLjriugIE88t-7" value="No" style="shape=partialRectangle;connectable=0;fillColor=none;top=0;left=0;bottom=0;right=0;fontStyle=1;overflow=hidden;whiteSpace=wrap;html=1;fontSize=11;labelBackgroundColor=none;strokeColor=#BAC8D3;fontColor=#182E3E;" vertex="1" parent="b4izhYdNKLjriugIE88t-6">
          <mxGeometry width="30" height="20" as="geometry">
            <mxRectangle width="30" height="20" as="alternateBounds" />
          </mxGeometry>
        </mxCell>
        <mxCell id="b4izhYdNKLjriugIE88t-8" value="&lt;font style=&quot;font-size: 11px;&quot;&gt;Enabled App&lt;/font&gt;" style="shape=partialRectangle;connectable=0;fillColor=none;top=0;left=0;bottom=0;right=0;align=left;spacingLeft=6;fontStyle=1;overflow=hidden;whiteSpace=wrap;html=1;labelBackgroundColor=none;strokeColor=#BAC8D3;fontColor=#182E3E;fontSize=11;" vertex="1" parent="b4izhYdNKLjriugIE88t-6">
          <mxGeometry x="30" width="110" height="20" as="geometry">
            <mxRectangle width="110" height="20" as="alternateBounds" />
          </mxGeometry>
        </mxCell>
        <mxCell id="b4izhYdNKLjriugIE88t-9" value="" style="shape=tableRow;horizontal=0;startSize=0;swimlaneHead=0;swimlaneBody=0;fillColor=none;collapsible=0;dropTarget=0;points=[[0,0.5],[1,0.5]];portConstraint=eastwest;top=0;left=0;right=0;bottom=0;labelBackgroundColor=none;strokeColor=#BAC8D3;fontColor=#182E3E;" vertex="1" parent="b4izhYdNKLjriugIE88t-5">
          <mxGeometry y="40" width="140" height="20" as="geometry" />
        </mxCell>
        <mxCell id="b4izhYdNKLjriugIE88t-10" value="4" style="shape=partialRectangle;connectable=0;fillColor=none;top=0;left=0;bottom=0;right=0;editable=1;overflow=hidden;whiteSpace=wrap;html=1;labelBackgroundColor=none;strokeColor=#BAC8D3;fontColor=#182E3E;" vertex="1" parent="b4izhYdNKLjriugIE88t-9">
          <mxGeometry width="30" height="20" as="geometry">
            <mxRectangle width="30" height="20" as="alternateBounds" />
          </mxGeometry>
        </mxCell>
        <mxCell id="b4izhYdNKLjriugIE88t-11" value="Network Storage" style="shape=partialRectangle;connectable=0;fillColor=none;top=0;left=0;bottom=0;right=0;align=left;spacingLeft=6;overflow=hidden;whiteSpace=wrap;html=1;labelBackgroundColor=none;strokeColor=#BAC8D3;fontColor=#182E3E;" vertex="1" parent="b4izhYdNKLjriugIE88t-9">
          <mxGeometry x="30" width="110" height="20" as="geometry">
            <mxRectangle width="110" height="20" as="alternateBounds" />
          </mxGeometry>
        </mxCell>
        <mxCell id="b4izhYdNKLjriugIE88t-12" value="" style="shape=tableRow;horizontal=0;startSize=0;swimlaneHead=0;swimlaneBody=0;fillColor=none;collapsible=0;dropTarget=0;points=[[0,0.5],[1,0.5]];portConstraint=eastwest;top=0;left=0;right=0;bottom=0;labelBackgroundColor=none;strokeColor=#BAC8D3;fontColor=#182E3E;" vertex="1" parent="b4izhYdNKLjriugIE88t-5">
          <mxGeometry y="60" width="140" height="20" as="geometry" />
        </mxCell>
        <mxCell id="b4izhYdNKLjriugIE88t-13" value="5" style="shape=partialRectangle;connectable=0;fillColor=none;top=0;left=0;bottom=0;right=0;editable=1;overflow=hidden;whiteSpace=wrap;html=1;labelBackgroundColor=none;strokeColor=#BAC8D3;fontColor=#182E3E;" vertex="1" parent="b4izhYdNKLjriugIE88t-12">
          <mxGeometry width="30" height="20" as="geometry">
            <mxRectangle width="30" height="20" as="alternateBounds" />
          </mxGeometry>
        </mxCell>
        <mxCell id="b4izhYdNKLjriugIE88t-14" value="&lt;span style=&quot;color: rgb(0, 0, 0); font-family: Helvetica; font-size: 12px; font-style: normal; font-variant-ligatures: normal; font-variant-caps: normal; font-weight: 400; letter-spacing: normal; orphans: 2; text-align: left; text-indent: 0px; text-transform: none; widows: 2; word-spacing: 0px; -webkit-text-stroke-width: 0px; white-space: normal; background-color: rgb(251, 251, 251); text-decoration-thickness: initial; text-decoration-style: initial; text-decoration-color: initial; display: inline !important; float: none;&quot;&gt;Adguard Home&lt;/span&gt;" style="shape=partialRectangle;connectable=0;fillColor=none;top=0;left=0;bottom=0;right=0;align=left;spacingLeft=6;overflow=hidden;whiteSpace=wrap;html=1;labelBackgroundColor=none;strokeColor=#BAC8D3;fontColor=#182E3E;" vertex="1" parent="b4izhYdNKLjriugIE88t-12">
          <mxGeometry x="30" width="110" height="20" as="geometry">
            <mxRectangle width="110" height="20" as="alternateBounds" />
          </mxGeometry>
        </mxCell>
        <mxCell id="b4izhYdNKLjriugIE88t-15" value="" style="shape=tableRow;horizontal=0;startSize=0;swimlaneHead=0;swimlaneBody=0;fillColor=none;collapsible=0;dropTarget=0;points=[[0,0.5],[1,0.5]];portConstraint=eastwest;top=0;left=0;right=0;bottom=0;labelBackgroundColor=none;strokeColor=#BAC8D3;fontColor=#182E3E;" vertex="1" parent="b4izhYdNKLjriugIE88t-5">
          <mxGeometry y="80" width="140" height="20" as="geometry" />
        </mxCell>
        <mxCell id="b4izhYdNKLjriugIE88t-16" value="8" style="shape=partialRectangle;connectable=0;fillColor=none;top=0;left=0;bottom=0;right=0;editable=1;overflow=hidden;whiteSpace=wrap;html=1;labelBackgroundColor=none;strokeColor=#BAC8D3;fontColor=#182E3E;" vertex="1" parent="b4izhYdNKLjriugIE88t-15">
          <mxGeometry width="30" height="20" as="geometry">
            <mxRectangle width="30" height="20" as="alternateBounds" />
          </mxGeometry>
        </mxCell>
        <mxCell id="b4izhYdNKLjriugIE88t-17" value="&lt;meta charset=&quot;utf-8&quot;&gt;&lt;span style=&quot;color: rgb(0, 0, 0); font-family: Helvetica; font-size: 12px; font-style: normal; font-variant-ligatures: normal; font-variant-caps: normal; font-weight: 400; letter-spacing: normal; orphans: 2; text-align: left; text-indent: 0px; text-transform: none; widows: 2; word-spacing: 0px; -webkit-text-stroke-width: 0px; white-space: normal; background-color: rgb(251, 251, 251); text-decoration-thickness: initial; text-decoration-style: initial; text-decoration-color: initial; display: inline !important; float: none;&quot;&gt;Tailscale&lt;/span&gt;" style="shape=partialRectangle;connectable=0;fillColor=none;top=0;left=0;bottom=0;right=0;align=left;spacingLeft=6;overflow=hidden;whiteSpace=wrap;html=1;labelBackgroundColor=none;strokeColor=#BAC8D3;fontColor=#182E3E;" vertex="1" parent="b4izhYdNKLjriugIE88t-15">
          <mxGeometry x="30" width="110" height="20" as="geometry">
            <mxRectangle width="110" height="20" as="alternateBounds" />
          </mxGeometry>
        </mxCell>
        <mxCell id="b4izhYdNKLjriugIE88t-18" value="GL-MT3000 system" style="swimlane;strokeColor=#BAC8D3;fontColor=#182E3E;fillColor=#B1DDF0;container=0;labelBackgroundColor=none;" vertex="1" parent="b4izhYdNKLjriugIE88t-4">
          <mxGeometry width="340" height="284" as="geometry" />
        </mxCell>
        <mxCell id="b4izhYdNKLjriugIE88t-19" value="Plug-ins" style="shape=table;startSize=20;container=1;collapsible=1;childLayout=tableLayout;fixedRows=1;rowLines=0;fontStyle=1;align=center;resizeLast=1;html=1;spacing=2;labelBackgroundColor=none;fillColor=#B1DDF0;strokeColor=#BAC8D3;fontColor=#182E3E;" vertex="1" parent="b4izhYdNKLjriugIE88t-4">
          <mxGeometry x="160" y="34.35" width="170" height="240" as="geometry">
            <mxRectangle x="-580" y="110" width="80" height="30" as="alternateBounds" />
          </mxGeometry>
        </mxCell>
        <mxCell id="b4izhYdNKLjriugIE88t-20" value="" style="shape=tableRow;horizontal=0;startSize=0;swimlaneHead=0;swimlaneBody=0;fillColor=none;collapsible=0;dropTarget=0;points=[[0,0.5],[1,0.5]];portConstraint=eastwest;top=0;left=0;right=0;bottom=1;labelBackgroundColor=none;strokeColor=#BAC8D3;fontColor=#182E3E;" vertex="1" parent="b4izhYdNKLjriugIE88t-19">
          <mxGeometry y="20" width="170" height="20" as="geometry" />
        </mxCell>
        <mxCell id="b4izhYdNKLjriugIE88t-21" value="Version" style="shape=partialRectangle;connectable=0;fillColor=none;top=0;left=0;bottom=0;right=0;fontStyle=1;overflow=hidden;fontSize=11;align=center;html=1;labelBackgroundColor=none;strokeColor=#BAC8D3;fontColor=#182E3E;" vertex="1" parent="b4izhYdNKLjriugIE88t-20">
          <mxGeometry width="70" height="20" as="geometry">
            <mxRectangle width="70" height="20" as="alternateBounds" />
          </mxGeometry>
        </mxCell>
        <mxCell id="b4izhYdNKLjriugIE88t-22" value="Software name" style="shape=partialRectangle;connectable=0;fillColor=none;top=0;left=0;bottom=0;right=0;align=left;spacingLeft=6;fontStyle=1;overflow=hidden;html=1;fontSize=11;whiteSpace=wrap;labelBackgroundColor=none;strokeColor=#BAC8D3;fontColor=#182E3E;" vertex="1" parent="b4izhYdNKLjriugIE88t-20">
          <mxGeometry x="70" width="100" height="20" as="geometry">
            <mxRectangle width="100" height="20" as="alternateBounds" />
          </mxGeometry>
        </mxCell>
        <mxCell id="b4izhYdNKLjriugIE88t-23" value="" style="shape=tableRow;horizontal=0;startSize=0;swimlaneHead=0;swimlaneBody=0;fillColor=none;collapsible=0;dropTarget=0;points=[[0,0.5],[1,0.5]];portConstraint=eastwest;top=0;left=0;right=0;bottom=0;labelBackgroundColor=none;strokeColor=#BAC8D3;fontColor=#182E3E;swimlaneFillColor=none;strokeWidth=1;" vertex="1" parent="b4izhYdNKLjriugIE88t-19">
          <mxGeometry y="40" width="170" height="20" as="geometry" />
        </mxCell>
        <mxCell id="b4izhYdNKLjriugIE88t-24" value="&lt;p style=&quot;margin: 0px; font-variant-numeric: normal; font-variant-east-asian: normal; font-variant-alternates: normal; font-size-adjust: none; font-kerning: auto; font-optical-sizing: auto; font-feature-settings: normal; font-variation-settings: normal; font-variant-position: normal; font-stretch: normal; font-size: 11px; line-height: normal; text-align: start;&quot; class=&quot;p1&quot;&gt;&lt;font style=&quot;font-size: 11px;&quot;&gt;0.104.2-1&lt;/font&gt;&lt;/p&gt;" style="shape=partialRectangle;connectable=0;fillColor=none;top=0;left=0;bottom=0;right=0;editable=1;overflow=hidden;whiteSpace=wrap;html=1;fontSize=11;fontFamily=Helvetica;fontStyle=0;labelBackgroundColor=none;strokeColor=#BAC8D3;fontColor=#182E3E;" vertex="1" parent="b4izhYdNKLjriugIE88t-23">
          <mxGeometry width="70" height="20" as="geometry">
            <mxRectangle width="70" height="20" as="alternateBounds" />
          </mxGeometry>
        </mxCell>
        <mxCell id="b4izhYdNKLjriugIE88t-25" value="clamav" style="shape=partialRectangle;connectable=0;fillColor=none;top=0;left=0;bottom=0;right=0;align=left;spacingLeft=6;overflow=hidden;whiteSpace=wrap;html=1;fontFamily=Helvetica;fontSize=12;labelBackgroundColor=none;strokeColor=#BAC8D3;fontColor=#182E3E;" vertex="1" parent="b4izhYdNKLjriugIE88t-23">
          <mxGeometry x="70" width="100" height="20" as="geometry">
            <mxRectangle width="100" height="20" as="alternateBounds" />
          </mxGeometry>
        </mxCell>
        <mxCell id="b4izhYdNKLjriugIE88t-26" value="" style="shape=tableRow;horizontal=0;startSize=0;swimlaneHead=0;swimlaneBody=0;fillColor=none;collapsible=0;dropTarget=0;points=[[0,0.5],[1,0.5]];portConstraint=eastwest;top=0;left=0;right=0;bottom=0;labelBackgroundColor=none;strokeColor=#BAC8D3;fontColor=#182E3E;" vertex="1" parent="b4izhYdNKLjriugIE88t-19">
          <mxGeometry y="60" width="170" height="20" as="geometry" />
        </mxCell>
        <mxCell id="b4izhYdNKLjriugIE88t-27" value="&lt;p style=&quot;margin: 0px; font-variant-numeric: normal; font-variant-east-asian: normal; font-variant-alternates: normal; font-size-adjust: none; font-kerning: auto; font-optical-sizing: auto; font-feature-settings: normal; font-variation-settings: normal; font-variant-position: normal; font-stretch: normal; font-size: 11px; line-height: normal; text-align: start;&quot; class=&quot;p1&quot;&gt;8.32-6&lt;/p&gt;" style="shape=partialRectangle;connectable=0;fillColor=none;top=0;left=0;bottom=0;right=0;editable=1;overflow=hidden;whiteSpace=wrap;html=1;fontFamily=Helvetica;fontSize=11;fontStyle=0;labelBackgroundColor=none;strokeColor=#BAC8D3;fontColor=#182E3E;" vertex="1" parent="b4izhYdNKLjriugIE88t-26">
          <mxGeometry width="70" height="20" as="geometry">
            <mxRectangle width="70" height="20" as="alternateBounds" />
          </mxGeometry>
        </mxCell>
        <mxCell id="b4izhYdNKLjriugIE88t-28" value="&lt;p class=&quot;p1&quot; style=&quot;margin: 0px; font-variant-numeric: normal; font-variant-east-asian: normal; font-variant-alternates: normal; font-size-adjust: none; font-kerning: auto; font-optical-sizing: auto; font-feature-settings: normal; font-variation-settings: normal; font-variant-position: normal; font-stretch: normal; line-height: normal; font-size: 12px;&quot;&gt;&lt;font style=&quot;font-size: 12px;&quot;&gt;coreutils-fold&lt;/font&gt;&lt;/p&gt;" style="shape=partialRectangle;connectable=0;fillColor=none;top=0;left=0;bottom=0;right=0;align=left;spacingLeft=6;overflow=hidden;whiteSpace=wrap;html=1;fontFamily=Helvetica;fontSize=12;labelBackgroundColor=none;strokeColor=#BAC8D3;fontColor=#182E3E;" vertex="1" parent="b4izhYdNKLjriugIE88t-26">
          <mxGeometry x="70" width="100" height="20" as="geometry">
            <mxRectangle width="100" height="20" as="alternateBounds" />
          </mxGeometry>
        </mxCell>
        <mxCell id="b4izhYdNKLjriugIE88t-29" value="" style="shape=tableRow;horizontal=0;startSize=0;swimlaneHead=0;swimlaneBody=0;fillColor=none;collapsible=0;dropTarget=0;points=[[0,0.5],[1,0.5]];portConstraint=eastwest;top=0;left=0;right=0;bottom=0;labelBackgroundColor=none;strokeColor=#BAC8D3;fontColor=#182E3E;" vertex="1" parent="b4izhYdNKLjriugIE88t-19">
          <mxGeometry y="80" width="170" height="20" as="geometry" />
        </mxCell>
        <mxCell id="b4izhYdNKLjriugIE88t-30" value="&lt;p style=&quot;margin: 0px; font-variant-numeric: normal; font-variant-east-asian: normal; font-variant-alternates: normal; font-size-adjust: none; font-kerning: auto; font-optical-sizing: auto; font-feature-settings: normal; font-variation-settings: normal; font-variant-position: normal; font-stretch: normal; font-size: 11px; line-height: normal; text-align: start;&quot; class=&quot;p1&quot;&gt;1.8.19-1&lt;/p&gt;" style="shape=partialRectangle;connectable=0;fillColor=none;top=0;left=0;bottom=0;right=0;editable=1;overflow=hidden;whiteSpace=wrap;html=1;fontFamily=Helvetica;fontSize=11;fontStyle=0;labelBackgroundColor=none;strokeColor=#BAC8D3;fontColor=#182E3E;" vertex="1" parent="b4izhYdNKLjriugIE88t-29">
          <mxGeometry width="70" height="20" as="geometry">
            <mxRectangle width="70" height="20" as="alternateBounds" />
          </mxGeometry>
        </mxCell>
        <mxCell id="b4izhYdNKLjriugIE88t-31" value="&lt;p class=&quot;p1&quot; style=&quot;margin: 0px; font-variant-numeric: normal; font-variant-east-asian: normal; font-variant-alternates: normal; font-size-adjust: none; font-kerning: auto; font-optical-sizing: auto; font-feature-settings: normal; font-variation-settings: normal; font-variant-position: normal; font-stretch: normal; font-size: 12px; line-height: normal;&quot;&gt;msmtp&lt;/p&gt;" style="shape=partialRectangle;connectable=0;fillColor=none;top=0;left=0;bottom=0;right=0;align=left;spacingLeft=6;overflow=hidden;whiteSpace=wrap;html=1;fontFamily=Helvetica;fontSize=12;labelBackgroundColor=none;strokeColor=#BAC8D3;fontColor=#182E3E;" vertex="1" parent="b4izhYdNKLjriugIE88t-29">
          <mxGeometry x="70" width="100" height="20" as="geometry">
            <mxRectangle width="100" height="20" as="alternateBounds" />
          </mxGeometry>
        </mxCell>
        <mxCell id="b4izhYdNKLjriugIE88t-32" style="shape=tableRow;horizontal=0;startSize=0;swimlaneHead=0;swimlaneBody=0;fillColor=none;collapsible=0;dropTarget=0;points=[[0,0.5],[1,0.5]];portConstraint=eastwest;top=0;left=0;right=0;bottom=0;labelBackgroundColor=none;strokeColor=#BAC8D3;fontColor=#182E3E;" vertex="1" parent="b4izhYdNKLjriugIE88t-19">
          <mxGeometry y="100" width="170" height="20" as="geometry" />
        </mxCell>
        <mxCell id="b4izhYdNKLjriugIE88t-33" value="&lt;p style=&quot;margin: 0px; font-variant-numeric: normal; font-variant-east-asian: normal; font-variant-alternates: normal; font-size-adjust: none; font-kerning: auto; font-optical-sizing: auto; font-feature-settings: normal; font-variation-settings: normal; font-variant-position: normal; font-stretch: normal; font-size: 11px; line-height: normal; text-align: start;&quot; class=&quot;p1&quot;&gt;1.8.19-1&lt;/p&gt;" style="shape=partialRectangle;connectable=0;fillColor=none;top=0;left=0;bottom=0;right=0;editable=1;overflow=hidden;whiteSpace=wrap;html=1;fontFamily=Helvetica;fontSize=11;fontStyle=0;labelBackgroundColor=none;strokeColor=#BAC8D3;fontColor=#182E3E;" vertex="1" parent="b4izhYdNKLjriugIE88t-32">
          <mxGeometry width="70" height="20" as="geometry">
            <mxRectangle width="70" height="20" as="alternateBounds" />
          </mxGeometry>
        </mxCell>
        <mxCell id="b4izhYdNKLjriugIE88t-34" value="&lt;p class=&quot;p1&quot; style=&quot;margin: 0px; font-variant-numeric: normal; font-variant-east-asian: normal; font-variant-alternates: normal; font-size-adjust: none; font-kerning: auto; font-optical-sizing: auto; font-feature-settings: normal; font-variation-settings: normal; font-variant-position: normal; font-stretch: normal; font-size: 12px; line-height: normal;&quot;&gt;msmtp-mta&lt;/p&gt;" style="shape=partialRectangle;connectable=0;fillColor=none;top=0;left=0;bottom=0;right=0;align=left;spacingLeft=6;overflow=hidden;whiteSpace=wrap;html=1;fontFamily=Helvetica;fontSize=12;labelBackgroundColor=none;strokeColor=#BAC8D3;fontColor=#182E3E;" vertex="1" parent="b4izhYdNKLjriugIE88t-32">
          <mxGeometry x="70" width="100" height="20" as="geometry">
            <mxRectangle width="100" height="20" as="alternateBounds" />
          </mxGeometry>
        </mxCell>
        <mxCell id="b4izhYdNKLjriugIE88t-35" style="shape=tableRow;horizontal=0;startSize=0;swimlaneHead=0;swimlaneBody=0;fillColor=none;collapsible=0;dropTarget=0;points=[[0,0.5],[1,0.5]];portConstraint=eastwest;top=0;left=0;right=0;bottom=0;labelBackgroundColor=none;strokeColor=#BAC8D3;fontColor=#182E3E;" vertex="1" parent="b4izhYdNKLjriugIE88t-19">
          <mxGeometry y="120" width="170" height="20" as="geometry" />
        </mxCell>
        <mxCell id="b4izhYdNKLjriugIE88t-36" value="&lt;p style=&quot;margin: 0px; font-variant-numeric: normal; font-variant-east-asian: normal; font-variant-alternates: normal; font-size-adjust: none; font-kerning: auto; font-optical-sizing: auto; font-feature-settings: normal; font-variation-settings: normal; font-variant-position: normal; font-stretch: normal; font-size: 11px; line-height: normal; text-align: start;&quot; class=&quot;p1&quot;&gt;1.14.7-1&lt;/p&gt;" style="shape=partialRectangle;connectable=0;fillColor=none;top=0;left=0;bottom=0;right=0;editable=1;overflow=hidden;whiteSpace=wrap;html=1;fontFamily=Helvetica;fontSize=11;fontStyle=0;labelBackgroundColor=none;strokeColor=#BAC8D3;fontColor=#182E3E;" vertex="1" parent="b4izhYdNKLjriugIE88t-35">
          <mxGeometry width="70" height="20" as="geometry">
            <mxRectangle width="70" height="20" as="alternateBounds" />
          </mxGeometry>
        </mxCell>
        <mxCell id="b4izhYdNKLjriugIE88t-37" value="&lt;p class=&quot;p1&quot; style=&quot;margin: 0px; font-variant-numeric: normal; font-variant-east-asian: normal; font-variant-alternates: normal; font-size-adjust: none; font-kerning: auto; font-optical-sizing: auto; font-feature-settings: normal; font-variation-settings: normal; font-variant-position: normal; font-stretch: normal; font-size: 12px; line-height: normal;&quot;&gt;mutt&lt;/p&gt;" style="shape=partialRectangle;connectable=0;fillColor=none;top=0;left=0;bottom=0;right=0;align=left;spacingLeft=6;overflow=hidden;whiteSpace=wrap;html=1;fontFamily=Helvetica;fontSize=12;labelBackgroundColor=none;strokeColor=#BAC8D3;fontColor=#182E3E;" vertex="1" parent="b4izhYdNKLjriugIE88t-35">
          <mxGeometry x="70" width="100" height="20" as="geometry">
            <mxRectangle width="100" height="20" as="alternateBounds" />
          </mxGeometry>
        </mxCell>
        <mxCell id="b4izhYdNKLjriugIE88t-38" style="shape=tableRow;horizontal=0;startSize=0;swimlaneHead=0;swimlaneBody=0;fillColor=none;collapsible=0;dropTarget=0;points=[[0,0.5],[1,0.5]];portConstraint=eastwest;top=0;left=0;right=0;bottom=0;labelBackgroundColor=none;strokeColor=#BAC8D3;fontColor=#182E3E;" vertex="1" parent="b4izhYdNKLjriugIE88t-19">
          <mxGeometry y="140" width="170" height="20" as="geometry" />
        </mxCell>
        <mxCell id="b4izhYdNKLjriugIE88t-39" value="&lt;p style=&quot;margin: 0px; font-variant-numeric: normal; font-variant-east-asian: normal; font-variant-alternates: normal; font-size-adjust: none; font-kerning: auto; font-optical-sizing: auto; font-feature-settings: normal; font-variation-settings: normal; font-variant-position: normal; font-stretch: normal; font-size: 11px; line-height: normal; text-align: start;&quot; class=&quot;p1&quot;&gt;3.3.16-3&lt;/p&gt;" style="shape=partialRectangle;connectable=0;fillColor=none;top=0;left=0;bottom=0;right=0;editable=1;overflow=hidden;whiteSpace=wrap;html=1;fontFamily=Helvetica;fontSize=11;fontStyle=0;labelBackgroundColor=none;strokeColor=#BAC8D3;fontColor=#182E3E;" vertex="1" parent="b4izhYdNKLjriugIE88t-38">
          <mxGeometry width="70" height="20" as="geometry">
            <mxRectangle width="70" height="20" as="alternateBounds" />
          </mxGeometry>
        </mxCell>
        <mxCell id="b4izhYdNKLjriugIE88t-40" value="&lt;p class=&quot;p1&quot; style=&quot;margin: 0px; font-variant-numeric: normal; font-variant-east-asian: normal; font-variant-alternates: normal; font-size-adjust: none; font-kerning: auto; font-optical-sizing: auto; font-feature-settings: normal; font-variation-settings: normal; font-variant-position: normal; font-stretch: normal; font-size: 12px; line-height: normal;&quot;&gt;procps-ng-ps&lt;/p&gt;" style="shape=partialRectangle;connectable=0;fillColor=none;top=0;left=0;bottom=0;right=0;align=left;spacingLeft=6;overflow=hidden;whiteSpace=wrap;html=1;fontFamily=Helvetica;fontSize=12;labelBackgroundColor=none;strokeColor=#BAC8D3;fontColor=#182E3E;" vertex="1" parent="b4izhYdNKLjriugIE88t-38">
          <mxGeometry x="70" width="100" height="20" as="geometry">
            <mxRectangle width="100" height="20" as="alternateBounds" />
          </mxGeometry>
        </mxCell>
        <mxCell id="b4izhYdNKLjriugIE88t-41" style="shape=tableRow;horizontal=0;startSize=0;swimlaneHead=0;swimlaneBody=0;fillColor=none;collapsible=0;dropTarget=0;points=[[0,0.5],[1,0.5]];portConstraint=eastwest;top=0;left=0;right=0;bottom=0;labelBackgroundColor=none;strokeColor=#BAC8D3;fontColor=#182E3E;" vertex="1" parent="b4izhYdNKLjriugIE88t-19">
          <mxGeometry y="160" width="170" height="20" as="geometry" />
        </mxCell>
        <mxCell id="b4izhYdNKLjriugIE88t-42" value="&lt;p style=&quot;margin: 0px; font-variant-numeric: normal; font-variant-east-asian: normal; font-variant-alternates: normal; font-size-adjust: none; font-kerning: auto; font-optical-sizing: auto; font-feature-settings: normal; font-variation-settings: normal; font-variant-position: normal; font-stretch: normal; font-size: 11px; line-height: normal; text-align: start;&quot; class=&quot;p1&quot;&gt;3.2.3-3&lt;/p&gt;" style="shape=partialRectangle;connectable=0;fillColor=none;top=0;left=0;bottom=0;right=0;editable=1;overflow=hidden;whiteSpace=wrap;html=1;fontFamily=Helvetica;fontSize=11;fontStyle=0;labelBackgroundColor=none;strokeColor=#BAC8D3;fontColor=#182E3E;" vertex="1" parent="b4izhYdNKLjriugIE88t-41">
          <mxGeometry width="70" height="20" as="geometry">
            <mxRectangle width="70" height="20" as="alternateBounds" />
          </mxGeometry>
        </mxCell>
        <mxCell id="b4izhYdNKLjriugIE88t-43" value="rsync" style="shape=partialRectangle;connectable=0;fillColor=none;top=0;left=0;bottom=0;right=0;align=left;spacingLeft=6;overflow=hidden;whiteSpace=wrap;html=1;fontFamily=Helvetica;fontSize=12;labelBackgroundColor=none;strokeColor=#BAC8D3;fontColor=#182E3E;" vertex="1" parent="b4izhYdNKLjriugIE88t-41">
          <mxGeometry x="70" width="100" height="20" as="geometry">
            <mxRectangle width="100" height="20" as="alternateBounds" />
          </mxGeometry>
        </mxCell>
        <mxCell id="b4izhYdNKLjriugIE88t-44" style="shape=tableRow;horizontal=0;startSize=0;swimlaneHead=0;swimlaneBody=0;fillColor=none;collapsible=0;dropTarget=0;points=[[0,0.5],[1,0.5]];portConstraint=eastwest;top=0;left=0;right=0;bottom=0;labelBackgroundColor=none;strokeColor=#BAC8D3;fontColor=#182E3E;" vertex="1" parent="b4izhYdNKLjriugIE88t-19">
          <mxGeometry y="180" width="170" height="20" as="geometry" />
        </mxCell>
        <mxCell id="b4izhYdNKLjriugIE88t-45" value="&lt;p style=&quot;margin: 0px; font-variant-numeric: normal; font-variant-east-asian: normal; font-variant-alternates: normal; font-size-adjust: none; font-kerning: auto; font-optical-sizing: auto; font-feature-settings: normal; font-variation-settings: normal; font-variant-position: normal; font-stretch: normal; line-height: normal; color: rgb(0, 0, 0); text-align: start;&quot; class=&quot;p1&quot;&gt;&lt;font face=&quot;Helvetica&quot; style=&quot;font-size: 11px;&quot;&gt;12.4.2-1&lt;/font&gt;&lt;/p&gt;" style="shape=partialRectangle;connectable=0;fillColor=none;top=0;left=0;bottom=0;right=0;editable=1;overflow=hidden;whiteSpace=wrap;html=1;fontFamily=Helvetica;fontSize=11;fontStyle=0;labelBackgroundColor=none;strokeColor=#BAC8D3;fontColor=#182E3E;" vertex="1" parent="b4izhYdNKLjriugIE88t-44">
          <mxGeometry width="70" height="20" as="geometry">
            <mxRectangle width="70" height="20" as="alternateBounds" />
          </mxGeometry>
        </mxCell>
        <mxCell id="b4izhYdNKLjriugIE88t-46" value="sysstat" style="shape=partialRectangle;connectable=0;fillColor=none;top=0;left=0;bottom=0;right=0;align=left;spacingLeft=6;overflow=hidden;whiteSpace=wrap;html=1;fontFamily=Helvetica;fontSize=12;labelBackgroundColor=none;strokeColor=#BAC8D3;fontColor=#182E3E;" vertex="1" parent="b4izhYdNKLjriugIE88t-44">
          <mxGeometry x="70" width="100" height="20" as="geometry">
            <mxRectangle width="100" height="20" as="alternateBounds" />
          </mxGeometry>
        </mxCell>
        <mxCell id="b4izhYdNKLjriugIE88t-47" style="shape=tableRow;horizontal=0;startSize=0;swimlaneHead=0;swimlaneBody=0;fillColor=none;collapsible=0;dropTarget=0;points=[[0,0.5],[1,0.5]];portConstraint=eastwest;top=0;left=0;right=0;bottom=0;labelBackgroundColor=none;strokeColor=#BAC8D3;fontColor=#182E3E;" vertex="1" parent="b4izhYdNKLjriugIE88t-19">
          <mxGeometry y="200" width="170" height="20" as="geometry" />
        </mxCell>
        <mxCell id="b4izhYdNKLjriugIE88t-48" value="&lt;p style=&quot;margin: 0px; font-variant-numeric: normal; font-variant-east-asian: normal; font-variant-alternates: normal; font-size-adjust: none; font-kerning: auto; font-optical-sizing: auto; font-feature-settings: normal; font-variation-settings: normal; font-variant-position: normal; font-stretch: normal; font-size: 11px; line-height: normal; text-align: start;&quot; class=&quot;p1&quot;&gt;2.0.2-1&lt;br&gt;&lt;/p&gt;" style="shape=partialRectangle;connectable=0;fillColor=none;top=0;left=0;bottom=0;right=0;editable=1;overflow=hidden;whiteSpace=wrap;html=1;fontFamily=Helvetica;fontSize=11;fontStyle=0;labelBackgroundColor=none;strokeColor=#BAC8D3;fontColor=#182E3E;" vertex="1" parent="b4izhYdNKLjriugIE88t-47">
          <mxGeometry width="70" height="20" as="geometry">
            <mxRectangle width="70" height="20" as="alternateBounds" />
          </mxGeometry>
        </mxCell>
        <mxCell id="b4izhYdNKLjriugIE88t-49" value="&lt;p style=&quot;margin: 0px; font-size: 12px;&quot;&gt;tree&lt;br&gt;&lt;/p&gt;" style="shape=partialRectangle;connectable=0;fillColor=none;top=0;left=0;bottom=0;right=0;align=left;spacingLeft=6;overflow=hidden;whiteSpace=wrap;html=1;fontFamily=Helvetica;fontSize=12;labelBackgroundColor=none;strokeColor=#BAC8D3;fontColor=#182E3E;" vertex="1" parent="b4izhYdNKLjriugIE88t-47">
          <mxGeometry x="70" width="100" height="20" as="geometry">
            <mxRectangle width="100" height="20" as="alternateBounds" />
          </mxGeometry>
        </mxCell>
        <mxCell id="b4izhYdNKLjriugIE88t-50" style="shape=tableRow;horizontal=0;startSize=0;swimlaneHead=0;swimlaneBody=0;fillColor=none;collapsible=0;dropTarget=0;points=[[0,0.5],[1,0.5]];portConstraint=eastwest;top=0;left=0;right=0;bottom=0;labelBackgroundColor=none;strokeColor=#BAC8D3;fontColor=#182E3E;" vertex="1" parent="b4izhYdNKLjriugIE88t-19">
          <mxGeometry y="220" width="170" height="20" as="geometry" />
        </mxCell>
        <mxCell id="b4izhYdNKLjriugIE88t-51" value="&lt;span style=&quot;text-align: start;&quot;&gt;0.41-1&lt;/span&gt;" style="shape=partialRectangle;connectable=0;fillColor=none;top=0;left=0;bottom=0;right=0;editable=1;overflow=hidden;whiteSpace=wrap;html=1;fontFamily=Helvetica;fontSize=11;fontStyle=0;labelBackgroundColor=none;strokeColor=#BAC8D3;fontColor=#182E3E;" vertex="1" parent="b4izhYdNKLjriugIE88t-50">
          <mxGeometry width="70" height="20" as="geometry">
            <mxRectangle width="70" height="20" as="alternateBounds" />
          </mxGeometry>
        </mxCell>
        <mxCell id="b4izhYdNKLjriugIE88t-52" value="&lt;span style=&quot;color: rgb(0, 0, 0); font-variant-ligatures: common-ligatures;&quot;&gt;wakeonlan&lt;/span&gt;" style="shape=partialRectangle;connectable=0;fillColor=none;top=0;left=0;bottom=0;right=0;align=left;spacingLeft=6;overflow=hidden;whiteSpace=wrap;html=1;fontFamily=Helvetica;fontSize=12;labelBackgroundColor=none;strokeColor=#BAC8D3;fontColor=#182E3E;" vertex="1" parent="b4izhYdNKLjriugIE88t-50">
          <mxGeometry x="70" width="100" height="20" as="geometry">
            <mxRectangle width="100" height="20" as="alternateBounds" />
          </mxGeometry>
        </mxCell>
        <mxCell id="b4izhYdNKLjriugIE88t-53" value="" style="shape=message;html=1;html=1;outlineConnect=0;labelPosition=center;verticalLabelPosition=bottom;align=center;verticalAlign=top;labelBackgroundColor=none;fillColor=#B1DDF0;strokeColor=#BAC8D3;fontColor=#182E3E;container=0;" vertex="1" parent="1">
          <mxGeometry x="-180" y="165" width="30" height="20" as="geometry" />
        </mxCell>
        <mxCell id="b4izhYdNKLjriugIE88t-54" value="callback" style="html=1;verticalAlign=bottom;endArrow=block;curved=0;rounded=0;entryX=1;entryY=0;entryDx=0;entryDy=5;labelBackgroundColor=none;strokeColor=#60E696;fontColor=default;" edge="1" parent="1">
          <mxGeometry relative="1" as="geometry">
            <mxPoint x="-341" y="154" as="sourcePoint" />
            <mxPoint x="-401" y="154" as="targetPoint" />
            <mxPoint as="offset" />
          </mxGeometry>
        </mxCell>
        <mxCell id="b4izhYdNKLjriugIE88t-55" value="return" style="html=1;verticalAlign=bottom;endArrow=open;dashed=1;endSize=8;curved=0;rounded=0;exitX=1;exitY=1;exitDx=0;exitDy=-5;labelBackgroundColor=none;strokeColor=#60E696;fontColor=default;" edge="1" parent="1">
          <mxGeometry relative="1" as="geometry">
            <mxPoint x="-341" y="194" as="targetPoint" />
            <mxPoint x="-401" y="194" as="sourcePoint" />
            <Array as="points">
              <mxPoint x="-391" y="194" />
            </Array>
          </mxGeometry>
        </mxCell>
        <mxCell id="b4izhYdNKLjriugIE88t-56" value="&lt;b&gt;&amp;nbsp;&lt;span style=&quot;background-color: initial;&quot;&gt;GL-MT3000&amp;nbsp;&lt;/span&gt;&lt;span style=&quot;background-color: initial; font-family: &amp;quot;Helvetica Neue&amp;quot;;&quot;&gt;observation&lt;/span&gt;&lt;/b&gt;" style="shape=umlFrame;whiteSpace=wrap;html=1;pointerEvents=0;width=152;height=23;horizontal=1;align=left;labelBackgroundColor=none;fillColor=#B1DDF0;strokeColor=#BAC8D3;fontColor=#182E3E;container=0;" vertex="1" parent="1">
          <mxGeometry x="-446" y="79" width="310" height="165" as="geometry" />
        </mxCell>
        <mxCell id="b4izhYdNKLjriugIE88t-57" value="" style="group;labelBackgroundColor=none;fontColor=#182E3E;" vertex="1" connectable="0" parent="1">
          <mxGeometry x="-431" y="134" width="30" height="80" as="geometry" />
        </mxCell>
        <mxCell id="b4izhYdNKLjriugIE88t-58" value="" style="html=1;points=[[0,0,0,0,5],[0,1,0,0,-5],[1,0,0,0,5],[1,1,0,0,-5]];perimeter=orthogonalPerimeter;outlineConnect=0;targetShapes=umlLifeline;portConstraint=eastwest;newEdgeStyle={&quot;curved&quot;:0,&quot;rounded&quot;:0};rounded=1;labelBackgroundColor=none;fillColor=#B1DDF0;strokeColor=#BAC8D3;fontColor=#182E3E;" vertex="1" parent="b4izhYdNKLjriugIE88t-57">
          <mxGeometry width="30" height="80" as="geometry" />
        </mxCell>
        <mxCell id="b4izhYdNKLjriugIE88t-59" value="" style="shape=image;html=1;verticalLabelPosition=bottom;verticalAlign=top;imageAspect=1;aspect=fixed;image=img/clipart/Gear_128x128.png;container=0;labelBackgroundColor=none;fillColor=#B1DDF0;strokeColor=#BAC8D3;fontColor=#182E3E;" vertex="1" parent="b4izhYdNKLjriugIE88t-57">
          <mxGeometry x="3.1299999999999955" y="26.08000000000004" width="23.74" height="27.84" as="geometry" />
        </mxCell>
        <mxCell id="b4izhYdNKLjriugIE88t-60" value="cron" style="text;html=1;align=center;verticalAlign=middle;resizable=0;points=[];autosize=1;strokeColor=none;fillColor=none;fontSize=12;labelBackgroundColor=none;fontColor=#182E3E;" vertex="1" parent="1">
          <mxGeometry x="-347" y="120" width="50" height="30" as="geometry" />
        </mxCell>
        <mxCell id="b4izhYdNKLjriugIE88t-61" value="" style="edgeStyle=entityRelationEdgeStyle;startArrow=none;endArrow=classic;segment=10;curved=1;sourcePerimeterSpacing=0;targetPerimeterSpacing=0;rounded=0;exitX=0;exitY=0;exitDx=40;exitDy=16.764705882352942;exitPerimeter=0;endFill=1;labelBackgroundColor=none;strokeColor=#60E696;fontColor=default;" edge="1" parent="1" source="b4izhYdNKLjriugIE88t-79" target="b4izhYdNKLjriugIE88t-2">
          <mxGeometry relative="1" as="geometry">
            <mxPoint x="-281" y="179" as="sourcePoint" />
          </mxGeometry>
        </mxCell>
        <mxCell id="b4izhYdNKLjriugIE88t-62" value="" style="group;labelBackgroundColor=none;fontColor=#182E3E;" vertex="1" connectable="0" parent="1">
          <mxGeometry x="-346" y="179" width="50" height="31" as="geometry" />
        </mxCell>
        <mxCell id="b4izhYdNKLjriugIE88t-63" value="" style="group;labelBackgroundColor=none;fontColor=#182E3E;" vertex="1" connectable="0" parent="b4izhYdNKLjriugIE88t-62">
          <mxGeometry width="50" height="28" as="geometry" />
        </mxCell>
        <mxCell id="b4izhYdNKLjriugIE88t-64" value="system" style="text;html=1;align=center;verticalAlign=middle;resizable=0;points=[];autosize=1;strokeColor=none;fillColor=none;fontSize=12;labelBackgroundColor=none;fontColor=#182E3E;" vertex="1" parent="1">
          <mxGeometry x="-446" y="109" width="60" height="30" as="geometry" />
        </mxCell>
        <mxCell id="b4izhYdNKLjriugIE88t-65" value="" style="edgeStyle=entityRelationEdgeStyle;startArrow=none;endArrow=none;segment=10;curved=1;sourcePerimeterSpacing=0;targetPerimeterSpacing=0;rounded=0;entryX=0.5;entryY=1;entryDx=0;entryDy=0;labelBackgroundColor=none;strokeColor=#60E696;fontColor=default;" edge="1" parent="1" target="b4izhYdNKLjriugIE88t-66">
          <mxGeometry relative="1" as="geometry">
            <mxPoint x="-301" y="154" as="sourcePoint" />
            <mxPoint x="-276" y="134" as="targetPoint" />
          </mxGeometry>
        </mxCell>
        <mxCell id="b4izhYdNKLjriugIE88t-66" value="&lt;span style=&quot;text-wrap: nowrap;&quot;&gt;sysstat&lt;/span&gt;" style="rounded=1;arcSize=10;whiteSpace=wrap;html=1;align=center;spacingBottom=2;spacingTop=0;labelBackgroundColor=none;fillColor=#B1DDF0;strokeColor=#BAC8D3;fontColor=#182E3E;container=0;" vertex="1" parent="1">
          <mxGeometry x="-204" y="104" width="50" height="20" as="geometry" />
        </mxCell>
        <mxCell id="b4izhYdNKLjriugIE88t-67" value="&lt;span style=&quot;color: rgb(24, 46, 62); text-align: left;&quot;&gt;procps-ng-ps&lt;/span&gt;" style="rounded=1;arcSize=10;whiteSpace=wrap;html=1;align=center;spacingBottom=2;spacingTop=0;labelBackgroundColor=none;fillColor=#B1DDF0;strokeColor=#BAC8D3;fontColor=#182E3E;container=0;" vertex="1" parent="1">
          <mxGeometry x="-295" y="104" width="80" height="20" as="geometry" />
        </mxCell>
        <mxCell id="b4izhYdNKLjriugIE88t-68" value="" style="edgeStyle=entityRelationEdgeStyle;startArrow=none;endArrow=none;segment=10;curved=1;sourcePerimeterSpacing=0;targetPerimeterSpacing=0;rounded=0;entryX=0.5;entryY=1;entryDx=0;entryDy=0;labelBackgroundColor=none;strokeColor=#60E696;fontColor=default;" edge="1" parent="1" source="b4izhYdNKLjriugIE88t-76" target="b4izhYdNKLjriugIE88t-67">
          <mxGeometry relative="1" as="geometry">
            <mxPoint x="-291" y="164" as="sourcePoint" />
            <mxPoint x="-251" y="139" as="targetPoint" />
            <Array as="points">
              <mxPoint x="-266" y="148" />
              <mxPoint x="-206" y="148" />
              <mxPoint x="-266" y="148" />
            </Array>
          </mxGeometry>
        </mxCell>
        <mxCell id="b4izhYdNKLjriugIE88t-69" value="&lt;span style=&quot;text-align: left;&quot;&gt;mutt&lt;/span&gt;" style="rounded=1;arcSize=10;whiteSpace=wrap;html=1;align=center;spacingBottom=2;spacingTop=0;labelBackgroundColor=none;fillColor=#B1DDF0;strokeColor=#BAC8D3;fontColor=#182E3E;container=0;" vertex="1" parent="1">
          <mxGeometry x="-218" y="194" width="38" height="20" as="geometry" />
        </mxCell>
        <mxCell id="b4izhYdNKLjriugIE88t-70" value="" style="edgeStyle=elbowEdgeStyle;elbow=vertical;sourcePerimeterSpacing=0;targetPerimeterSpacing=0;startArrow=oval;endArrow=none;rounded=1;curved=0;movable=1;resizable=1;rotatable=1;deletable=1;editable=1;locked=0;connectable=1;exitX=0.5;exitY=1;exitDx=0;exitDy=0;labelBackgroundColor=none;fontColor=default;labelBorderColor=none;strokeColor=#60E696;entryX=0;entryY=0.5;entryDx=0;entryDy=0;startFill=1;" edge="1" parent="1" source="b4izhYdNKLjriugIE88t-2" target="b4izhYdNKLjriugIE88t-69">
          <mxGeometry relative="1" as="geometry">
            <mxPoint x="-330" y="249" as="sourcePoint" />
            <Array as="points">
              <mxPoint x="-226" y="204" />
            </Array>
            <mxPoint x="-150" y="310" as="targetPoint" />
          </mxGeometry>
        </mxCell>
        <mxCell id="b4izhYdNKLjriugIE88t-71" value="" style="edgeStyle=entityRelationEdgeStyle;startArrow=none;endArrow=none;segment=10;curved=1;sourcePerimeterSpacing=0;targetPerimeterSpacing=0;rounded=0;entryX=0;entryY=0.5;entryDx=0;entryDy=0;labelBackgroundColor=none;strokeColor=#60E696;fontColor=default;" edge="1" parent="1" source="b4izhYdNKLjriugIE88t-76" target="b4izhYdNKLjriugIE88t-73">
          <mxGeometry relative="1" as="geometry">
            <mxPoint x="-291" y="164" as="sourcePoint" />
            <mxPoint x="-220" y="154" as="targetPoint" />
            <Array as="points">
              <mxPoint x="-256" y="158" />
              <mxPoint x="-246" y="139" />
              <mxPoint x="-256" y="139" />
              <mxPoint x="-196" y="158" />
              <mxPoint x="-256" y="158" />
            </Array>
          </mxGeometry>
        </mxCell>
        <mxCell id="b4izhYdNKLjriugIE88t-72" value="" style="edgeStyle=orthogonalEdgeStyle;rounded=0;orthogonalLoop=1;jettySize=auto;html=1;labelBackgroundColor=none;strokeColor=#60E696;fontColor=default;exitX=1;exitY=0.5;exitDx=0;exitDy=0;entryX=0;entryY=0.5;entryDx=0;entryDy=0;" edge="1" parent="1" source="b4izhYdNKLjriugIE88t-2" target="b4izhYdNKLjriugIE88t-53">
          <mxGeometry relative="1" as="geometry">
            <mxPoint x="-216" y="175" as="sourcePoint" />
            <mxPoint x="-180" y="175" as="targetPoint" />
          </mxGeometry>
        </mxCell>
        <mxCell id="b4izhYdNKLjriugIE88t-73" value="&lt;span style=&quot;text-wrap: nowrap;&quot;&gt;rsync&lt;/span&gt;" style="rounded=1;arcSize=10;whiteSpace=wrap;html=1;align=center;spacingBottom=2;spacingTop=0;labelBackgroundColor=none;fillColor=#B1DDF0;strokeColor=#BAC8D3;fontColor=#182E3E;container=0;" vertex="1" parent="1">
          <mxGeometry x="-199" y="134" width="45" height="20" as="geometry" />
        </mxCell>
        <mxCell id="b4izhYdNKLjriugIE88t-74" value="" style="edgeStyle=orthogonalEdgeStyle;rounded=0;orthogonalLoop=1;jettySize=auto;html=1;labelBackgroundColor=none;strokeColor=#60E696;fontColor=default;entryX=0.726;entryY=0.3;entryDx=0;entryDy=0;entryPerimeter=0;" edge="1" parent="1" source="b4izhYdNKLjriugIE88t-76" target="b4izhYdNKLjriugIE88t-79">
          <mxGeometry relative="1" as="geometry">
            <mxPoint x="-321" y="169" as="sourcePoint" />
            <mxPoint x="-316" y="189" as="targetPoint" />
            <Array as="points">
              <mxPoint x="-321" y="173" />
              <mxPoint x="-312" y="173" />
            </Array>
          </mxGeometry>
        </mxCell>
        <mxCell id="b4izhYdNKLjriugIE88t-75" value="" style="group;" vertex="1" connectable="0" parent="1">
          <mxGeometry x="-341" y="144" width="40" height="20" as="geometry" />
        </mxCell>
        <mxCell id="b4izhYdNKLjriugIE88t-76" value="" style="html=1;points=[[0,0,0,0,5],[0,1,0,0,-5],[1,0,0,0,5],[1,1,0,0,-5]];perimeter=orthogonalPerimeter;outlineConnect=0;targetShapes=umlLifeline;portConstraint=eastwest;newEdgeStyle={&quot;curved&quot;:0,&quot;rounded&quot;:0};rounded=1;labelBackgroundColor=none;fillColor=#B1DDF0;strokeColor=#BAC8D3;fontColor=#182E3E;" vertex="1" parent="b4izhYdNKLjriugIE88t-75">
          <mxGeometry width="40" height="20" as="geometry" />
        </mxCell>
        <mxCell id="b4izhYdNKLjriugIE88t-77" value="" style="shape=image;html=1;verticalLabelPosition=bottom;verticalAlign=top;imageAspect=1;aspect=fixed;image=img/clipart/Gear_128x128.png;container=0;labelBackgroundColor=none;fillColor=#B1DDF0;strokeColor=#BAC8D3;fontColor=#182E3E;" vertex="1" parent="b4izhYdNKLjriugIE88t-75">
          <mxGeometry x="14.069999999999936" y="3.0399999999999636" width="11.87" height="13.92" as="geometry" />
        </mxCell>
        <mxCell id="b4izhYdNKLjriugIE88t-78" value="" style="group;" vertex="1" connectable="0" parent="1">
          <mxGeometry x="-346" y="179" width="50" height="31" as="geometry" />
        </mxCell>
        <mxCell id="b4izhYdNKLjriugIE88t-79" value="" style="shape=folder;fontStyle=1;spacingTop=10;tabWidth=15;tabHeight=8;tabPosition=left;html=1;whiteSpace=wrap;container=0;labelBackgroundColor=none;fillColor=#B1DDF0;strokeColor=#BAC8D3;fontColor=#182E3E;" vertex="1" parent="b4izhYdNKLjriugIE88t-78">
          <mxGeometry x="5" width="40" height="25.52941176470588" as="geometry" />
        </mxCell>
        <mxCell id="b4izhYdNKLjriugIE88t-80" value="&lt;font style=&quot;font-size: 11px;&quot; face=&quot;Helvetica&quot;&gt;folder&lt;/font&gt;" style="text;html=1;align=center;verticalAlign=middle;resizable=0;points=[];autosize=1;strokeColor=none;fillColor=none;labelBackgroundColor=none;fontColor=#182E3E;" vertex="1" parent="b4izhYdNKLjriugIE88t-78">
          <mxGeometry y="1" width="50" height="30" as="geometry" />
        </mxCell>
        <mxCell id="b4izhYdNKLjriugIE88t-81" value="" style="edgeStyle=elbowEdgeStyle;elbow=vertical;sourcePerimeterSpacing=0;targetPerimeterSpacing=0;startArrow=none;endArrow=none;rounded=1;curved=0;movable=1;resizable=1;rotatable=1;deletable=1;editable=1;locked=0;connectable=1;labelBackgroundColor=none;fontColor=default;labelBorderColor=none;strokeColor=#60E696;entryX=0.5;entryY=1;entryDx=0;entryDy=0;startFill=0;" edge="1" parent="1" source="b4izhYdNKLjriugIE88t-84" target="b4izhYdNKLjriugIE88t-69">
          <mxGeometry relative="1" as="geometry">
            <mxPoint x="-231" y="195" as="sourcePoint" />
            <Array as="points">
              <mxPoint x="-216" y="229" />
            </Array>
            <mxPoint x="-208" y="214" as="targetPoint" />
          </mxGeometry>
        </mxCell>
        <mxCell id="b4izhYdNKLjriugIE88t-86" value="&lt;p style=&quot;margin: 0px; font-variant-numeric: normal; font-variant-east-asian: normal; font-variant-alternates: normal; font-size-adjust: none; font-kerning: auto; font-optical-sizing: auto; font-feature-settings: normal; font-variation-settings: normal; font-variant-position: normal; font-stretch: normal; line-height: normal; font-family: &amp;quot;Helvetica Neue&amp;quot;; text-align: start; text-wrap: wrap;&quot; class=&quot;p1&quot;&gt;&lt;font style=&quot;font-size: 12px;&quot;&gt;msmtprc&lt;/font&gt;&lt;/p&gt;" style="text;html=1;align=center;verticalAlign=middle;resizable=0;points=[];autosize=1;strokeColor=none;fillColor=none;container=0;" vertex="1" parent="1">
          <mxGeometry x="-299" y="209" width="70" height="30" as="geometry" />
        </mxCell>
        <mxCell id="b4izhYdNKLjriugIE88t-87" value="" style="edgeStyle=elbowEdgeStyle;elbow=vertical;sourcePerimeterSpacing=0;targetPerimeterSpacing=0;startArrow=none;endArrow=classic;rounded=1;curved=0;movable=1;resizable=1;rotatable=1;deletable=1;editable=1;locked=0;connectable=1;labelBackgroundColor=none;fontColor=default;labelBorderColor=none;strokeColor=#60E696;entryX=0.875;entryY=0.5;entryDx=0;entryDy=0;startFill=0;endFill=1;entryPerimeter=0;exitX=1;exitY=0.5;exitDx=0;exitDy=0;" edge="1" parent="1" source="b4izhYdNKLjriugIE88t-53" target="TBqUn7i90Os5dq9h37R5-149">
          <mxGeometry relative="1" as="geometry">
            <mxPoint x="-116" y="179" as="sourcePoint" />
            <Array as="points">
              <mxPoint x="-26" y="449" />
            </Array>
            <mxPoint x="-43.159999999999854" y="698" as="targetPoint" />
          </mxGeometry>
        </mxCell>
        <UserObject label="&lt;span style=&quot;color: rgb(0, 0, 0); font-size: 11px; font-style: normal; font-variant-ligatures: normal; font-variant-caps: normal; font-weight: 400; letter-spacing: normal; orphans: 2; text-indent: 0px; text-transform: none; widows: 2; word-spacing: 0px; -webkit-text-stroke-width: 0px; white-space: normal; text-decoration-thickness: initial; text-decoration-style: initial; text-decoration-color: initial; float: none; display: inline !important;&quot;&gt;from XXXXX@gmail.com&lt;/span&gt;" id="b4izhYdNKLjriugIE88t-88">
          <mxCell style="text;whiteSpace=wrap;html=1;verticalAlign=middle;fontFamily=Helvetica;labelBackgroundColor=none;align=center;" vertex="1" parent="1">
            <mxGeometry x="-130" y="145" width="103" height="26" as="geometry" />
          </mxCell>
        </UserObject>
        <mxCell id="b4izhYdNKLjriugIE88t-2" value="" style="whiteSpace=wrap;html=1;rounded=1;arcSize=50;align=center;verticalAlign=middle;strokeWidth=1;autosize=1;spacing=4;treeFolding=1;treeMoving=1;newEdgeStyle={&quot;edgeStyle&quot;:&quot;entityRelationEdgeStyle&quot;,&quot;startArrow&quot;:&quot;none&quot;,&quot;endArrow&quot;:&quot;none&quot;,&quot;segment&quot;:10,&quot;curved&quot;:1,&quot;sourcePerimeterSpacing&quot;:0,&quot;targetPerimeterSpacing&quot;:0};labelBackgroundColor=none;fillColor=#B1DDF0;strokeColor=#BAC8D3;fontColor=#182E3E;container=0;" vertex="1" parent="1">
          <mxGeometry x="-266" y="165" width="50" height="20" as="geometry" />
        </mxCell>
        <mxCell id="b4izhYdNKLjriugIE88t-3" value="tar.gz" style="text;html=1;align=center;verticalAlign=middle;resizable=0;points=[];autosize=1;strokeColor=none;fillColor=none;fontSize=12;labelBackgroundColor=none;fontColor=#182E3E;container=0;" vertex="1" parent="1">
          <mxGeometry x="-266" y="159" width="50" height="30" as="geometry" />
        </mxCell>
        <mxCell id="b4izhYdNKLjriugIE88t-84" value="" style="html=1;points=[[0,0,0,0,5],[0,1,0,0,-5],[1,0,0,0,5],[1,1,0,0,-5]];perimeter=orthogonalPerimeter;outlineConnect=0;targetShapes=umlLifeline;portConstraint=eastwest;newEdgeStyle={&quot;curved&quot;:0,&quot;rounded&quot;:0};rounded=1;labelBackgroundColor=none;fillColor=#B1DDF0;strokeColor=#BAC8D3;fontColor=#182E3E;container=0;" vertex="1" parent="1">
          <mxGeometry x="-306" y="215" width="71" height="20" as="geometry" />
        </mxCell>
        <mxCell id="b4izhYdNKLjriugIE88t-85" value="" style="shape=image;html=1;verticalLabelPosition=bottom;verticalAlign=top;imageAspect=1;aspect=fixed;image=img/clipart/Gear_128x128.png;container=0;labelBackgroundColor=none;fillColor=#B1DDF0;strokeColor=#BAC8D3;fontColor=#182E3E;" vertex="1" parent="1">
          <mxGeometry x="-302.00000000000006" y="218.03999999999996" width="11.87" height="13.92" as="geometry" />
        </mxCell>
      </root>
    </mxGraphModel>
  </diagram>
</mxfile>
